<?xml version="1.0" encoding="utf-8" standalone="no"?>
<!DOCTYPE svg PUBLIC "-//W3C//DTD SVG 1.1//EN"
  "http://www.w3.org/Graphics/SVG/1.1/DTD/svg11.dtd">
<!-- Created with matplotlib (https://matplotlib.org/) -->
<svg height="360pt" version="1.1" viewBox="0 0 1440 360" width="1440pt" xmlns="http://www.w3.org/2000/svg" xmlns:xlink="http://www.w3.org/1999/xlink">
 <metadata>
  <rdf:RDF xmlns:cc="http://creativecommons.org/ns#" xmlns:dc="http://purl.org/dc/elements/1.1/" xmlns:rdf="http://www.w3.org/1999/02/22-rdf-syntax-ns#">
   <cc:Work>
    <dc:type rdf:resource="http://purl.org/dc/dcmitype/StillImage"/>
    <dc:date>2020-12-28T17:49:37.513302</dc:date>
    <dc:format>image/svg+xml</dc:format>
    <dc:creator>
     <cc:Agent>
      <dc:title>Matplotlib v3.3.3, https://matplotlib.org/</dc:title>
     </cc:Agent>
    </dc:creator>
   </cc:Work>
  </rdf:RDF>
 </metadata>
 <defs>
  <style type="text/css">*{stroke-linecap:butt;stroke-linejoin:round;}</style>
 </defs>
 <g id="figure_1">
  <g id="patch_1">
   <path d="M 0 360 
L 1440 360 
L 1440 0 
L 0 0 
z
" style="fill:#ffffff;"/>
  </g>
  <g id="axes_1">
   <g id="patch_2">
    <path d="M 67.46 274.54 
L 474.17083 274.54 
L 474.17083 28.96 
L 67.46 28.96 
z
" style="fill:#eaeaf2;"/>
   </g>
   <g id="matplotlib.axis_1">
    <g id="xtick_1">
     <g id="line2d_1">
      <path clip-path="url(#pf9f47d54ce)" d="M 80.333285 274.54 
L 80.333285 28.96 
" style="fill:none;stroke:#ffffff;stroke-linecap:round;"/>
     </g>
     <g id="text_1">
      <!-- 500 -->
      <g style="fill:#262626;" transform="translate(69.83516 292.398281)scale(0.11 -0.11)">
       <defs>
        <path d="M 10.796875 72.90625 
L 49.515625 72.90625 
L 49.515625 64.59375 
L 19.828125 64.59375 
L 19.828125 46.734375 
Q 21.96875 47.46875 24.109375 47.828125 
Q 26.265625 48.1875 28.421875 48.1875 
Q 40.625 48.1875 47.75 41.5 
Q 54.890625 34.8125 54.890625 23.390625 
Q 54.890625 11.625 47.5625 5.09375 
Q 40.234375 -1.421875 26.90625 -1.421875 
Q 22.3125 -1.421875 17.546875 -0.640625 
Q 12.796875 0.140625 7.71875 1.703125 
L 7.71875 11.625 
Q 12.109375 9.234375 16.796875 8.0625 
Q 21.484375 6.890625 26.703125 6.890625 
Q 35.15625 6.890625 40.078125 11.328125 
Q 45.015625 15.765625 45.015625 23.390625 
Q 45.015625 31 40.078125 35.4375 
Q 35.15625 39.890625 26.703125 39.890625 
Q 22.75 39.890625 18.8125 39.015625 
Q 14.890625 38.140625 10.796875 36.28125 
z
" id="DejaVuSans-53"/>
        <path d="M 31.78125 66.40625 
Q 24.171875 66.40625 20.328125 58.90625 
Q 16.5 51.421875 16.5 36.375 
Q 16.5 21.390625 20.328125 13.890625 
Q 24.171875 6.390625 31.78125 6.390625 
Q 39.453125 6.390625 43.28125 13.890625 
Q 47.125 21.390625 47.125 36.375 
Q 47.125 51.421875 43.28125 58.90625 
Q 39.453125 66.40625 31.78125 66.40625 
z
M 31.78125 74.21875 
Q 44.046875 74.21875 50.515625 64.515625 
Q 56.984375 54.828125 56.984375 36.375 
Q 56.984375 17.96875 50.515625 8.265625 
Q 44.046875 -1.421875 31.78125 -1.421875 
Q 19.53125 -1.421875 13.0625 8.265625 
Q 6.59375 17.96875 6.59375 36.375 
Q 6.59375 54.828125 13.0625 64.515625 
Q 19.53125 74.21875 31.78125 74.21875 
z
" id="DejaVuSans-48"/>
       </defs>
       <use xlink:href="#DejaVuSans-53"/>
       <use x="63.623047" xlink:href="#DejaVuSans-48"/>
       <use x="127.246094" xlink:href="#DejaVuSans-48"/>
      </g>
     </g>
    </g>
    <g id="xtick_2">
     <g id="line2d_2">
      <path clip-path="url(#pf9f47d54ce)" d="M 156.192357 274.54 
L 156.192357 28.96 
" style="fill:none;stroke:#ffffff;stroke-linecap:round;"/>
     </g>
     <g id="text_2">
      <!-- 1000 -->
      <g style="fill:#262626;" transform="translate(142.194857 292.398281)scale(0.11 -0.11)">
       <defs>
        <path d="M 12.40625 8.296875 
L 28.515625 8.296875 
L 28.515625 63.921875 
L 10.984375 60.40625 
L 10.984375 69.390625 
L 28.421875 72.90625 
L 38.28125 72.90625 
L 38.28125 8.296875 
L 54.390625 8.296875 
L 54.390625 0 
L 12.40625 0 
z
" id="DejaVuSans-49"/>
       </defs>
       <use xlink:href="#DejaVuSans-49"/>
       <use x="63.623047" xlink:href="#DejaVuSans-48"/>
       <use x="127.246094" xlink:href="#DejaVuSans-48"/>
       <use x="190.869141" xlink:href="#DejaVuSans-48"/>
      </g>
     </g>
    </g>
    <g id="xtick_3">
     <g id="line2d_3">
      <path clip-path="url(#pf9f47d54ce)" d="M 232.051429 274.54 
L 232.051429 28.96 
" style="fill:none;stroke:#ffffff;stroke-linecap:round;"/>
     </g>
     <g id="text_3">
      <!-- 1500 -->
      <g style="fill:#262626;" transform="translate(218.053929 292.398281)scale(0.11 -0.11)">
       <use xlink:href="#DejaVuSans-49"/>
       <use x="63.623047" xlink:href="#DejaVuSans-53"/>
       <use x="127.246094" xlink:href="#DejaVuSans-48"/>
       <use x="190.869141" xlink:href="#DejaVuSans-48"/>
      </g>
     </g>
    </g>
    <g id="xtick_4">
     <g id="line2d_4">
      <path clip-path="url(#pf9f47d54ce)" d="M 307.910501 274.54 
L 307.910501 28.96 
" style="fill:none;stroke:#ffffff;stroke-linecap:round;"/>
     </g>
     <g id="text_4">
      <!-- 2000 -->
      <g style="fill:#262626;" transform="translate(293.913001 292.398281)scale(0.11 -0.11)">
       <defs>
        <path d="M 19.1875 8.296875 
L 53.609375 8.296875 
L 53.609375 0 
L 7.328125 0 
L 7.328125 8.296875 
Q 12.9375 14.109375 22.625 23.890625 
Q 32.328125 33.6875 34.8125 36.53125 
Q 39.546875 41.84375 41.421875 45.53125 
Q 43.3125 49.21875 43.3125 52.78125 
Q 43.3125 58.59375 39.234375 62.25 
Q 35.15625 65.921875 28.609375 65.921875 
Q 23.96875 65.921875 18.8125 64.3125 
Q 13.671875 62.703125 7.8125 59.421875 
L 7.8125 69.390625 
Q 13.765625 71.78125 18.9375 73 
Q 24.125 74.21875 28.421875 74.21875 
Q 39.75 74.21875 46.484375 68.546875 
Q 53.21875 62.890625 53.21875 53.421875 
Q 53.21875 48.921875 51.53125 44.890625 
Q 49.859375 40.875 45.40625 35.40625 
Q 44.1875 33.984375 37.640625 27.21875 
Q 31.109375 20.453125 19.1875 8.296875 
z
" id="DejaVuSans-50"/>
       </defs>
       <use xlink:href="#DejaVuSans-50"/>
       <use x="63.623047" xlink:href="#DejaVuSans-48"/>
       <use x="127.246094" xlink:href="#DejaVuSans-48"/>
       <use x="190.869141" xlink:href="#DejaVuSans-48"/>
      </g>
     </g>
    </g>
    <g id="xtick_5">
     <g id="line2d_5">
      <path clip-path="url(#pf9f47d54ce)" d="M 383.769574 274.54 
L 383.769574 28.96 
" style="fill:none;stroke:#ffffff;stroke-linecap:round;"/>
     </g>
     <g id="text_5">
      <!-- 2500 -->
      <g style="fill:#262626;" transform="translate(369.772074 292.398281)scale(0.11 -0.11)">
       <use xlink:href="#DejaVuSans-50"/>
       <use x="63.623047" xlink:href="#DejaVuSans-53"/>
       <use x="127.246094" xlink:href="#DejaVuSans-48"/>
       <use x="190.869141" xlink:href="#DejaVuSans-48"/>
      </g>
     </g>
    </g>
    <g id="xtick_6">
     <g id="line2d_6">
      <path clip-path="url(#pf9f47d54ce)" d="M 459.628646 274.54 
L 459.628646 28.96 
" style="fill:none;stroke:#ffffff;stroke-linecap:round;"/>
     </g>
     <g id="text_6">
      <!-- 3000 -->
      <g style="fill:#262626;" transform="translate(445.631146 292.398281)scale(0.11 -0.11)">
       <defs>
        <path d="M 40.578125 39.3125 
Q 47.65625 37.796875 51.625 33 
Q 55.609375 28.21875 55.609375 21.1875 
Q 55.609375 10.40625 48.1875 4.484375 
Q 40.765625 -1.421875 27.09375 -1.421875 
Q 22.515625 -1.421875 17.65625 -0.515625 
Q 12.796875 0.390625 7.625 2.203125 
L 7.625 11.71875 
Q 11.71875 9.328125 16.59375 8.109375 
Q 21.484375 6.890625 26.8125 6.890625 
Q 36.078125 6.890625 40.9375 10.546875 
Q 45.796875 14.203125 45.796875 21.1875 
Q 45.796875 27.640625 41.28125 31.265625 
Q 36.765625 34.90625 28.71875 34.90625 
L 20.21875 34.90625 
L 20.21875 43.015625 
L 29.109375 43.015625 
Q 36.375 43.015625 40.234375 45.921875 
Q 44.09375 48.828125 44.09375 54.296875 
Q 44.09375 59.90625 40.109375 62.90625 
Q 36.140625 65.921875 28.71875 65.921875 
Q 24.65625 65.921875 20.015625 65.03125 
Q 15.375 64.15625 9.8125 62.3125 
L 9.8125 71.09375 
Q 15.4375 72.65625 20.34375 73.4375 
Q 25.25 74.21875 29.59375 74.21875 
Q 40.828125 74.21875 47.359375 69.109375 
Q 53.90625 64.015625 53.90625 55.328125 
Q 53.90625 49.265625 50.4375 45.09375 
Q 46.96875 40.921875 40.578125 39.3125 
z
" id="DejaVuSans-51"/>
       </defs>
       <use xlink:href="#DejaVuSans-51"/>
       <use x="63.623047" xlink:href="#DejaVuSans-48"/>
       <use x="127.246094" xlink:href="#DejaVuSans-48"/>
       <use x="190.869141" xlink:href="#DejaVuSans-48"/>
      </g>
     </g>
    </g>
    <g id="text_7">
     <!-- Num points -->
     <g style="fill:#262626;" transform="translate(236.345415 307.804062)scale(0.12 -0.12)">
      <defs>
       <path d="M 9.8125 72.90625 
L 23.09375 72.90625 
L 55.421875 11.921875 
L 55.421875 72.90625 
L 64.984375 72.90625 
L 64.984375 0 
L 51.703125 0 
L 19.390625 60.984375 
L 19.390625 0 
L 9.8125 0 
z
" id="DejaVuSans-78"/>
       <path d="M 8.5 21.578125 
L 8.5 54.6875 
L 17.484375 54.6875 
L 17.484375 21.921875 
Q 17.484375 14.15625 20.5 10.265625 
Q 23.53125 6.390625 29.59375 6.390625 
Q 36.859375 6.390625 41.078125 11.03125 
Q 45.3125 15.671875 45.3125 23.6875 
L 45.3125 54.6875 
L 54.296875 54.6875 
L 54.296875 0 
L 45.3125 0 
L 45.3125 8.40625 
Q 42.046875 3.421875 37.71875 1 
Q 33.40625 -1.421875 27.6875 -1.421875 
Q 18.265625 -1.421875 13.375 4.4375 
Q 8.5 10.296875 8.5 21.578125 
z
M 31.109375 56 
z
" id="DejaVuSans-117"/>
       <path d="M 52 44.1875 
Q 55.375 50.25 60.0625 53.125 
Q 64.75 56 71.09375 56 
Q 79.640625 56 84.28125 50.015625 
Q 88.921875 44.046875 88.921875 33.015625 
L 88.921875 0 
L 79.890625 0 
L 79.890625 32.71875 
Q 79.890625 40.578125 77.09375 44.375 
Q 74.3125 48.1875 68.609375 48.1875 
Q 61.625 48.1875 57.5625 43.546875 
Q 53.515625 38.921875 53.515625 30.90625 
L 53.515625 0 
L 44.484375 0 
L 44.484375 32.71875 
Q 44.484375 40.625 41.703125 44.40625 
Q 38.921875 48.1875 33.109375 48.1875 
Q 26.21875 48.1875 22.15625 43.53125 
Q 18.109375 38.875 18.109375 30.90625 
L 18.109375 0 
L 9.078125 0 
L 9.078125 54.6875 
L 18.109375 54.6875 
L 18.109375 46.1875 
Q 21.1875 51.21875 25.484375 53.609375 
Q 29.78125 56 35.6875 56 
Q 41.65625 56 45.828125 52.96875 
Q 50 49.953125 52 44.1875 
z
" id="DejaVuSans-109"/>
       <path id="DejaVuSans-32"/>
       <path d="M 18.109375 8.203125 
L 18.109375 -20.796875 
L 9.078125 -20.796875 
L 9.078125 54.6875 
L 18.109375 54.6875 
L 18.109375 46.390625 
Q 20.953125 51.265625 25.265625 53.625 
Q 29.59375 56 35.59375 56 
Q 45.5625 56 51.78125 48.09375 
Q 58.015625 40.1875 58.015625 27.296875 
Q 58.015625 14.40625 51.78125 6.484375 
Q 45.5625 -1.421875 35.59375 -1.421875 
Q 29.59375 -1.421875 25.265625 0.953125 
Q 20.953125 3.328125 18.109375 8.203125 
z
M 48.6875 27.296875 
Q 48.6875 37.203125 44.609375 42.84375 
Q 40.53125 48.484375 33.40625 48.484375 
Q 26.265625 48.484375 22.1875 42.84375 
Q 18.109375 37.203125 18.109375 27.296875 
Q 18.109375 17.390625 22.1875 11.75 
Q 26.265625 6.109375 33.40625 6.109375 
Q 40.53125 6.109375 44.609375 11.75 
Q 48.6875 17.390625 48.6875 27.296875 
z
" id="DejaVuSans-112"/>
       <path d="M 30.609375 48.390625 
Q 23.390625 48.390625 19.1875 42.75 
Q 14.984375 37.109375 14.984375 27.296875 
Q 14.984375 17.484375 19.15625 11.84375 
Q 23.34375 6.203125 30.609375 6.203125 
Q 37.796875 6.203125 41.984375 11.859375 
Q 46.1875 17.53125 46.1875 27.296875 
Q 46.1875 37.015625 41.984375 42.703125 
Q 37.796875 48.390625 30.609375 48.390625 
z
M 30.609375 56 
Q 42.328125 56 49.015625 48.375 
Q 55.71875 40.765625 55.71875 27.296875 
Q 55.71875 13.875 49.015625 6.21875 
Q 42.328125 -1.421875 30.609375 -1.421875 
Q 18.84375 -1.421875 12.171875 6.21875 
Q 5.515625 13.875 5.515625 27.296875 
Q 5.515625 40.765625 12.171875 48.375 
Q 18.84375 56 30.609375 56 
z
" id="DejaVuSans-111"/>
       <path d="M 9.421875 54.6875 
L 18.40625 54.6875 
L 18.40625 0 
L 9.421875 0 
z
M 9.421875 75.984375 
L 18.40625 75.984375 
L 18.40625 64.59375 
L 9.421875 64.59375 
z
" id="DejaVuSans-105"/>
       <path d="M 54.890625 33.015625 
L 54.890625 0 
L 45.90625 0 
L 45.90625 32.71875 
Q 45.90625 40.484375 42.875 44.328125 
Q 39.84375 48.1875 33.796875 48.1875 
Q 26.515625 48.1875 22.3125 43.546875 
Q 18.109375 38.921875 18.109375 30.90625 
L 18.109375 0 
L 9.078125 0 
L 9.078125 54.6875 
L 18.109375 54.6875 
L 18.109375 46.1875 
Q 21.34375 51.125 25.703125 53.5625 
Q 30.078125 56 35.796875 56 
Q 45.21875 56 50.046875 50.171875 
Q 54.890625 44.34375 54.890625 33.015625 
z
" id="DejaVuSans-110"/>
       <path d="M 18.3125 70.21875 
L 18.3125 54.6875 
L 36.8125 54.6875 
L 36.8125 47.703125 
L 18.3125 47.703125 
L 18.3125 18.015625 
Q 18.3125 11.328125 20.140625 9.421875 
Q 21.96875 7.515625 27.59375 7.515625 
L 36.8125 7.515625 
L 36.8125 0 
L 27.59375 0 
Q 17.1875 0 13.234375 3.875 
Q 9.28125 7.765625 9.28125 18.015625 
L 9.28125 47.703125 
L 2.6875 47.703125 
L 2.6875 54.6875 
L 9.28125 54.6875 
L 9.28125 70.21875 
z
" id="DejaVuSans-116"/>
       <path d="M 44.28125 53.078125 
L 44.28125 44.578125 
Q 40.484375 46.53125 36.375 47.5 
Q 32.28125 48.484375 27.875 48.484375 
Q 21.1875 48.484375 17.84375 46.4375 
Q 14.5 44.390625 14.5 40.28125 
Q 14.5 37.15625 16.890625 35.375 
Q 19.28125 33.59375 26.515625 31.984375 
L 29.59375 31.296875 
Q 39.15625 29.25 43.1875 25.515625 
Q 47.21875 21.78125 47.21875 15.09375 
Q 47.21875 7.46875 41.1875 3.015625 
Q 35.15625 -1.421875 24.609375 -1.421875 
Q 20.21875 -1.421875 15.453125 -0.5625 
Q 10.6875 0.296875 5.421875 2 
L 5.421875 11.28125 
Q 10.40625 8.6875 15.234375 7.390625 
Q 20.0625 6.109375 24.8125 6.109375 
Q 31.15625 6.109375 34.5625 8.28125 
Q 37.984375 10.453125 37.984375 14.40625 
Q 37.984375 18.0625 35.515625 20.015625 
Q 33.0625 21.96875 24.703125 23.78125 
L 21.578125 24.515625 
Q 13.234375 26.265625 9.515625 29.90625 
Q 5.8125 33.546875 5.8125 39.890625 
Q 5.8125 47.609375 11.28125 51.796875 
Q 16.75 56 26.8125 56 
Q 31.78125 56 36.171875 55.265625 
Q 40.578125 54.546875 44.28125 53.078125 
z
" id="DejaVuSans-115"/>
      </defs>
      <use xlink:href="#DejaVuSans-78"/>
      <use x="74.804688" xlink:href="#DejaVuSans-117"/>
      <use x="138.183594" xlink:href="#DejaVuSans-109"/>
      <use x="235.595703" xlink:href="#DejaVuSans-32"/>
      <use x="267.382812" xlink:href="#DejaVuSans-112"/>
      <use x="330.859375" xlink:href="#DejaVuSans-111"/>
      <use x="392.041016" xlink:href="#DejaVuSans-105"/>
      <use x="419.824219" xlink:href="#DejaVuSans-110"/>
      <use x="483.203125" xlink:href="#DejaVuSans-116"/>
      <use x="522.412109" xlink:href="#DejaVuSans-115"/>
     </g>
    </g>
   </g>
   <g id="matplotlib.axis_2">
    <g id="ytick_1">
     <g id="line2d_7">
      <path clip-path="url(#pf9f47d54ce)" d="M 67.46 274.54 
L 474.17083 274.54 
" style="fill:none;stroke:#ffffff;stroke-linecap:round;"/>
     </g>
     <g id="text_8">
      <!-- 0 -->
      <g style="fill:#262626;" transform="translate(50.96125 278.719141)scale(0.11 -0.11)">
       <use xlink:href="#DejaVuSans-48"/>
      </g>
     </g>
    </g>
    <g id="ytick_2">
     <g id="line2d_8">
      <path clip-path="url(#pf9f47d54ce)" d="M 67.46 236.877244 
L 474.17083 236.877244 
" style="fill:none;stroke:#ffffff;stroke-linecap:round;"/>
     </g>
     <g id="text_9">
      <!-- 500 -->
      <g style="fill:#262626;" transform="translate(36.96375 241.056385)scale(0.11 -0.11)">
       <use xlink:href="#DejaVuSans-53"/>
       <use x="63.623047" xlink:href="#DejaVuSans-48"/>
       <use x="127.246094" xlink:href="#DejaVuSans-48"/>
      </g>
     </g>
    </g>
    <g id="ytick_3">
     <g id="line2d_9">
      <path clip-path="url(#pf9f47d54ce)" d="M 67.46 199.214488 
L 474.17083 199.214488 
" style="fill:none;stroke:#ffffff;stroke-linecap:round;"/>
     </g>
     <g id="text_10">
      <!-- 1000 -->
      <g style="fill:#262626;" transform="translate(29.965 203.393629)scale(0.11 -0.11)">
       <use xlink:href="#DejaVuSans-49"/>
       <use x="63.623047" xlink:href="#DejaVuSans-48"/>
       <use x="127.246094" xlink:href="#DejaVuSans-48"/>
       <use x="190.869141" xlink:href="#DejaVuSans-48"/>
      </g>
     </g>
    </g>
    <g id="ytick_4">
     <g id="line2d_10">
      <path clip-path="url(#pf9f47d54ce)" d="M 67.46 161.551732 
L 474.17083 161.551732 
" style="fill:none;stroke:#ffffff;stroke-linecap:round;"/>
     </g>
     <g id="text_11">
      <!-- 1500 -->
      <g style="fill:#262626;" transform="translate(29.965 165.730873)scale(0.11 -0.11)">
       <use xlink:href="#DejaVuSans-49"/>
       <use x="63.623047" xlink:href="#DejaVuSans-53"/>
       <use x="127.246094" xlink:href="#DejaVuSans-48"/>
       <use x="190.869141" xlink:href="#DejaVuSans-48"/>
      </g>
     </g>
    </g>
    <g id="ytick_5">
     <g id="line2d_11">
      <path clip-path="url(#pf9f47d54ce)" d="M 67.46 123.888976 
L 474.17083 123.888976 
" style="fill:none;stroke:#ffffff;stroke-linecap:round;"/>
     </g>
     <g id="text_12">
      <!-- 2000 -->
      <g style="fill:#262626;" transform="translate(29.965 128.068117)scale(0.11 -0.11)">
       <use xlink:href="#DejaVuSans-50"/>
       <use x="63.623047" xlink:href="#DejaVuSans-48"/>
       <use x="127.246094" xlink:href="#DejaVuSans-48"/>
       <use x="190.869141" xlink:href="#DejaVuSans-48"/>
      </g>
     </g>
    </g>
    <g id="ytick_6">
     <g id="line2d_12">
      <path clip-path="url(#pf9f47d54ce)" d="M 67.46 86.22622 
L 474.17083 86.22622 
" style="fill:none;stroke:#ffffff;stroke-linecap:round;"/>
     </g>
     <g id="text_13">
      <!-- 2500 -->
      <g style="fill:#262626;" transform="translate(29.965 90.405361)scale(0.11 -0.11)">
       <use xlink:href="#DejaVuSans-50"/>
       <use x="63.623047" xlink:href="#DejaVuSans-53"/>
       <use x="127.246094" xlink:href="#DejaVuSans-48"/>
       <use x="190.869141" xlink:href="#DejaVuSans-48"/>
      </g>
     </g>
    </g>
    <g id="ytick_7">
     <g id="line2d_13">
      <path clip-path="url(#pf9f47d54ce)" d="M 67.46 48.563464 
L 474.17083 48.563464 
" style="fill:none;stroke:#ffffff;stroke-linecap:round;"/>
     </g>
     <g id="text_14">
      <!-- 3000 -->
      <g style="fill:#262626;" transform="translate(29.965 52.742605)scale(0.11 -0.11)">
       <use xlink:href="#DejaVuSans-51"/>
       <use x="63.623047" xlink:href="#DejaVuSans-48"/>
       <use x="127.246094" xlink:href="#DejaVuSans-48"/>
       <use x="190.869141" xlink:href="#DejaVuSans-48"/>
      </g>
     </g>
    </g>
    <g id="text_15">
     <!-- Count -->
     <g style="fill:#262626;" transform="translate(23.469375 169.568125)rotate(-90)scale(0.12 -0.12)">
      <defs>
       <path d="M 64.40625 67.28125 
L 64.40625 56.890625 
Q 59.421875 61.53125 53.78125 63.8125 
Q 48.140625 66.109375 41.796875 66.109375 
Q 29.296875 66.109375 22.65625 58.46875 
Q 16.015625 50.828125 16.015625 36.375 
Q 16.015625 21.96875 22.65625 14.328125 
Q 29.296875 6.6875 41.796875 6.6875 
Q 48.140625 6.6875 53.78125 8.984375 
Q 59.421875 11.28125 64.40625 15.921875 
L 64.40625 5.609375 
Q 59.234375 2.09375 53.4375 0.328125 
Q 47.65625 -1.421875 41.21875 -1.421875 
Q 24.65625 -1.421875 15.125 8.703125 
Q 5.609375 18.84375 5.609375 36.375 
Q 5.609375 53.953125 15.125 64.078125 
Q 24.65625 74.21875 41.21875 74.21875 
Q 47.75 74.21875 53.53125 72.484375 
Q 59.328125 70.75 64.40625 67.28125 
z
" id="DejaVuSans-67"/>
      </defs>
      <use xlink:href="#DejaVuSans-67"/>
      <use x="69.824219" xlink:href="#DejaVuSans-111"/>
      <use x="131.005859" xlink:href="#DejaVuSans-117"/>
      <use x="194.384766" xlink:href="#DejaVuSans-110"/>
      <use x="257.763672" xlink:href="#DejaVuSans-116"/>
     </g>
    </g>
   </g>
   <g id="patch_3">
    <path clip-path="url(#pf9f47d54ce)" d="M 85.946856 274.54 
L 98.271427 274.54 
L 98.271427 274.088047 
L 85.946856 274.088047 
z
" style="fill:#4c72b0;fill-opacity:0.75;stroke:#ffffff;stroke-linejoin:miter;stroke-width:0.994652;"/>
   </g>
   <g id="patch_4">
    <path clip-path="url(#pf9f47d54ce)" d="M 98.271427 274.54 
L 110.595997 274.54 
L 110.595997 273.937396 
L 98.271427 273.937396 
z
" style="fill:#4c72b0;fill-opacity:0.75;stroke:#ffffff;stroke-linejoin:miter;stroke-width:0.994652;"/>
   </g>
   <g id="patch_5">
    <path clip-path="url(#pf9f47d54ce)" d="M 110.595997 274.54 
L 122.920568 274.54 
L 122.920568 274.163372 
L 110.595997 274.163372 
z
" style="fill:#4c72b0;fill-opacity:0.75;stroke:#ffffff;stroke-linejoin:miter;stroke-width:0.994652;"/>
   </g>
   <g id="patch_6">
    <path clip-path="url(#pf9f47d54ce)" d="M 122.920568 274.54 
L 135.245138 274.54 
L 135.245138 273.485443 
L 122.920568 273.485443 
z
" style="fill:#4c72b0;fill-opacity:0.75;stroke:#ffffff;stroke-linejoin:miter;stroke-width:0.994652;"/>
   </g>
   <g id="patch_7">
    <path clip-path="url(#pf9f47d54ce)" d="M 135.245138 274.54 
L 147.569709 274.54 
L 147.569709 273.334792 
L 135.245138 273.334792 
z
" style="fill:#4c72b0;fill-opacity:0.75;stroke:#ffffff;stroke-linejoin:miter;stroke-width:0.994652;"/>
   </g>
   <g id="patch_8">
    <path clip-path="url(#pf9f47d54ce)" d="M 147.569709 274.54 
L 159.89428 274.54 
L 159.89428 273.485443 
L 147.569709 273.485443 
z
" style="fill:#4c72b0;fill-opacity:0.75;stroke:#ffffff;stroke-linejoin:miter;stroke-width:0.994652;"/>
   </g>
   <g id="patch_9">
    <path clip-path="url(#pf9f47d54ce)" d="M 159.89428 274.54 
L 172.21885 274.54 
L 172.21885 273.410117 
L 159.89428 273.410117 
z
" style="fill:#4c72b0;fill-opacity:0.75;stroke:#ffffff;stroke-linejoin:miter;stroke-width:0.994652;"/>
   </g>
   <g id="patch_10">
    <path clip-path="url(#pf9f47d54ce)" d="M 172.21885 274.54 
L 184.543421 274.54 
L 184.543421 272.204909 
L 172.21885 272.204909 
z
" style="fill:#4c72b0;fill-opacity:0.75;stroke:#ffffff;stroke-linejoin:miter;stroke-width:0.994652;"/>
   </g>
   <g id="patch_11">
    <path clip-path="url(#pf9f47d54ce)" d="M 184.543421 274.54 
L 196.867991 274.54 
L 196.867991 272.581537 
L 184.543421 272.581537 
z
" style="fill:#4c72b0;fill-opacity:0.75;stroke:#ffffff;stroke-linejoin:miter;stroke-width:0.994652;"/>
   </g>
   <g id="patch_12">
    <path clip-path="url(#pf9f47d54ce)" d="M 196.867991 274.54 
L 209.192562 274.54 
L 209.192562 272.430886 
L 196.867991 272.430886 
z
" style="fill:#4c72b0;fill-opacity:0.75;stroke:#ffffff;stroke-linejoin:miter;stroke-width:0.994652;"/>
   </g>
   <g id="patch_13">
    <path clip-path="url(#pf9f47d54ce)" d="M 209.192562 274.54 
L 221.517133 274.54 
L 221.517133 272.581537 
L 209.192562 272.581537 
z
" style="fill:#4c72b0;fill-opacity:0.75;stroke:#ffffff;stroke-linejoin:miter;stroke-width:0.994652;"/>
   </g>
   <g id="patch_14">
    <path clip-path="url(#pf9f47d54ce)" d="M 221.517133 274.54 
L 233.841703 274.54 
L 233.841703 272.506211 
L 221.517133 272.506211 
z
" style="fill:#4c72b0;fill-opacity:0.75;stroke:#ffffff;stroke-linejoin:miter;stroke-width:0.994652;"/>
   </g>
   <g id="patch_15">
    <path clip-path="url(#pf9f47d54ce)" d="M 233.841703 274.54 
L 246.166274 274.54 
L 246.166274 272.430886 
L 233.841703 272.430886 
z
" style="fill:#4c72b0;fill-opacity:0.75;stroke:#ffffff;stroke-linejoin:miter;stroke-width:0.994652;"/>
   </g>
   <g id="patch_16">
    <path clip-path="url(#pf9f47d54ce)" d="M 246.166274 274.54 
L 258.490845 274.54 
L 258.490845 271.52698 
L 246.166274 271.52698 
z
" style="fill:#4c72b0;fill-opacity:0.75;stroke:#ffffff;stroke-linejoin:miter;stroke-width:0.994652;"/>
   </g>
   <g id="patch_17">
    <path clip-path="url(#pf9f47d54ce)" d="M 258.490845 274.54 
L 270.815415 274.54 
L 270.815415 272.129584 
L 258.490845 272.129584 
z
" style="fill:#4c72b0;fill-opacity:0.75;stroke:#ffffff;stroke-linejoin:miter;stroke-width:0.994652;"/>
   </g>
   <g id="patch_18">
    <path clip-path="url(#pf9f47d54ce)" d="M 270.815415 274.54 
L 283.139986 274.54 
L 283.139986 270.999701 
L 270.815415 270.999701 
z
" style="fill:#4c72b0;fill-opacity:0.75;stroke:#ffffff;stroke-linejoin:miter;stroke-width:0.994652;"/>
   </g>
   <g id="patch_19">
    <path clip-path="url(#pf9f47d54ce)" d="M 283.139986 274.54 
L 295.464556 274.54 
L 295.464556 270.321771 
L 283.139986 270.321771 
z
" style="fill:#4c72b0;fill-opacity:0.75;stroke:#ffffff;stroke-linejoin:miter;stroke-width:0.994652;"/>
   </g>
   <g id="patch_20">
    <path clip-path="url(#pf9f47d54ce)" d="M 295.464556 274.54 
L 307.789127 274.54 
L 307.789127 269.643842 
L 295.464556 269.643842 
z
" style="fill:#4c72b0;fill-opacity:0.75;stroke:#ffffff;stroke-linejoin:miter;stroke-width:0.994652;"/>
   </g>
   <g id="patch_21">
    <path clip-path="url(#pf9f47d54ce)" d="M 307.789127 274.54 
L 320.113698 274.54 
L 320.113698 267.685378 
L 307.789127 267.685378 
z
" style="fill:#4c72b0;fill-opacity:0.75;stroke:#ffffff;stroke-linejoin:miter;stroke-width:0.994652;"/>
   </g>
   <g id="patch_22">
    <path clip-path="url(#pf9f47d54ce)" d="M 320.113698 274.54 
L 332.438268 274.54 
L 332.438268 267.534727 
L 320.113698 267.534727 
z
" style="fill:#4c72b0;fill-opacity:0.75;stroke:#ffffff;stroke-linejoin:miter;stroke-width:0.994652;"/>
   </g>
   <g id="patch_23">
    <path clip-path="url(#pf9f47d54ce)" d="M 332.438268 274.54 
L 344.762839 274.54 
L 344.762839 263.241173 
L 332.438268 263.241173 
z
" style="fill:#4c72b0;fill-opacity:0.75;stroke:#ffffff;stroke-linejoin:miter;stroke-width:0.994652;"/>
   </g>
   <g id="patch_24">
    <path clip-path="url(#pf9f47d54ce)" d="M 344.762839 274.54 
L 357.087409 274.54 
L 357.087409 257.139807 
L 344.762839 257.139807 
z
" style="fill:#4c72b0;fill-opacity:0.75;stroke:#ffffff;stroke-linejoin:miter;stroke-width:0.994652;"/>
   </g>
   <g id="patch_25">
    <path clip-path="url(#pf9f47d54ce)" d="M 357.087409 274.54 
L 369.41198 274.54 
L 369.41198 251.113766 
L 357.087409 251.113766 
z
" style="fill:#4c72b0;fill-opacity:0.75;stroke:#ffffff;stroke-linejoin:miter;stroke-width:0.994652;"/>
   </g>
   <g id="patch_26">
    <path clip-path="url(#pf9f47d54ce)" d="M 369.41198 274.54 
L 381.736551 274.54 
L 381.736551 235.220083 
L 369.41198 235.220083 
z
" style="fill:#4c72b0;fill-opacity:0.75;stroke:#ffffff;stroke-linejoin:miter;stroke-width:0.994652;"/>
   </g>
   <g id="patch_27">
    <path clip-path="url(#pf9f47d54ce)" d="M 381.736551 274.54 
L 394.061121 274.54 
L 394.061121 189.045544 
L 381.736551 189.045544 
z
" style="fill:#4c72b0;fill-opacity:0.75;stroke:#ffffff;stroke-linejoin:miter;stroke-width:0.994652;"/>
   </g>
   <g id="patch_28">
    <path clip-path="url(#pf9f47d54ce)" d="M 394.061121 274.54 
L 406.385692 274.54 
L 406.385692 147.390536 
L 394.061121 147.390536 
z
" style="fill:#4c72b0;fill-opacity:0.75;stroke:#ffffff;stroke-linejoin:miter;stroke-width:0.994652;"/>
   </g>
   <g id="patch_29">
    <path clip-path="url(#pf9f47d54ce)" d="M 406.385692 274.54 
L 418.710262 274.54 
L 418.710262 50.220626 
L 406.385692 50.220626 
z
" style="fill:#4c72b0;fill-opacity:0.75;stroke:#ffffff;stroke-linejoin:miter;stroke-width:0.994652;"/>
   </g>
   <g id="patch_30">
    <path clip-path="url(#pf9f47d54ce)" d="M 418.710262 274.54 
L 431.034833 274.54 
L 431.034833 40.654286 
L 418.710262 40.654286 
z
" style="fill:#4c72b0;fill-opacity:0.75;stroke:#ffffff;stroke-linejoin:miter;stroke-width:0.994652;"/>
   </g>
   <g id="patch_31">
    <path clip-path="url(#pf9f47d54ce)" d="M 431.034833 274.54 
L 443.359404 274.54 
L 443.359404 178.349321 
L 431.034833 178.349321 
z
" style="fill:#4c72b0;fill-opacity:0.75;stroke:#ffffff;stroke-linejoin:miter;stroke-width:0.994652;"/>
   </g>
   <g id="patch_32">
    <path clip-path="url(#pf9f47d54ce)" d="M 443.359404 274.54 
L 455.683974 274.54 
L 455.683974 269.116563 
L 443.359404 269.116563 
z
" style="fill:#4c72b0;fill-opacity:0.75;stroke:#ffffff;stroke-linejoin:miter;stroke-width:0.994652;"/>
   </g>
   <g id="patch_33">
    <path d="M 67.46 274.54 
L 67.46 28.96 
" style="fill:none;stroke:#ffffff;stroke-linecap:square;stroke-linejoin:miter;stroke-width:1.25;"/>
   </g>
   <g id="patch_34">
    <path d="M 474.17083 274.54 
L 474.17083 28.96 
" style="fill:none;stroke:#ffffff;stroke-linecap:square;stroke-linejoin:miter;stroke-width:1.25;"/>
   </g>
   <g id="patch_35">
    <path d="M 67.46 274.54 
L 474.17083 274.54 
" style="fill:none;stroke:#ffffff;stroke-linecap:square;stroke-linejoin:miter;stroke-width:1.25;"/>
   </g>
   <g id="patch_36">
    <path d="M 67.46 28.96 
L 474.17083 28.96 
" style="fill:none;stroke:#ffffff;stroke-linecap:square;stroke-linejoin:miter;stroke-width:1.25;"/>
   </g>
   <g id="text_16">
    <!-- Point cloud size -->
    <g style="fill:#262626;" transform="translate(224.226353 22.96)scale(0.12 -0.12)">
     <defs>
      <path d="M 19.671875 64.796875 
L 19.671875 37.40625 
L 32.078125 37.40625 
Q 38.96875 37.40625 42.71875 40.96875 
Q 46.484375 44.53125 46.484375 51.125 
Q 46.484375 57.671875 42.71875 61.234375 
Q 38.96875 64.796875 32.078125 64.796875 
z
M 9.8125 72.90625 
L 32.078125 72.90625 
Q 44.34375 72.90625 50.609375 67.359375 
Q 56.890625 61.8125 56.890625 51.125 
Q 56.890625 40.328125 50.609375 34.8125 
Q 44.34375 29.296875 32.078125 29.296875 
L 19.671875 29.296875 
L 19.671875 0 
L 9.8125 0 
z
" id="DejaVuSans-80"/>
      <path d="M 48.78125 52.59375 
L 48.78125 44.1875 
Q 44.96875 46.296875 41.140625 47.34375 
Q 37.3125 48.390625 33.40625 48.390625 
Q 24.65625 48.390625 19.8125 42.84375 
Q 14.984375 37.3125 14.984375 27.296875 
Q 14.984375 17.28125 19.8125 11.734375 
Q 24.65625 6.203125 33.40625 6.203125 
Q 37.3125 6.203125 41.140625 7.25 
Q 44.96875 8.296875 48.78125 10.40625 
L 48.78125 2.09375 
Q 45.015625 0.34375 40.984375 -0.53125 
Q 36.96875 -1.421875 32.421875 -1.421875 
Q 20.0625 -1.421875 12.78125 6.34375 
Q 5.515625 14.109375 5.515625 27.296875 
Q 5.515625 40.671875 12.859375 48.328125 
Q 20.21875 56 33.015625 56 
Q 37.15625 56 41.109375 55.140625 
Q 45.0625 54.296875 48.78125 52.59375 
z
" id="DejaVuSans-99"/>
      <path d="M 9.421875 75.984375 
L 18.40625 75.984375 
L 18.40625 0 
L 9.421875 0 
z
" id="DejaVuSans-108"/>
      <path d="M 45.40625 46.390625 
L 45.40625 75.984375 
L 54.390625 75.984375 
L 54.390625 0 
L 45.40625 0 
L 45.40625 8.203125 
Q 42.578125 3.328125 38.25 0.953125 
Q 33.9375 -1.421875 27.875 -1.421875 
Q 17.96875 -1.421875 11.734375 6.484375 
Q 5.515625 14.40625 5.515625 27.296875 
Q 5.515625 40.1875 11.734375 48.09375 
Q 17.96875 56 27.875 56 
Q 33.9375 56 38.25 53.625 
Q 42.578125 51.265625 45.40625 46.390625 
z
M 14.796875 27.296875 
Q 14.796875 17.390625 18.875 11.75 
Q 22.953125 6.109375 30.078125 6.109375 
Q 37.203125 6.109375 41.296875 11.75 
Q 45.40625 17.390625 45.40625 27.296875 
Q 45.40625 37.203125 41.296875 42.84375 
Q 37.203125 48.484375 30.078125 48.484375 
Q 22.953125 48.484375 18.875 42.84375 
Q 14.796875 37.203125 14.796875 27.296875 
z
" id="DejaVuSans-100"/>
      <path d="M 5.515625 54.6875 
L 48.1875 54.6875 
L 48.1875 46.484375 
L 14.40625 7.171875 
L 48.1875 7.171875 
L 48.1875 0 
L 4.296875 0 
L 4.296875 8.203125 
L 38.09375 47.515625 
L 5.515625 47.515625 
z
" id="DejaVuSans-122"/>
      <path d="M 56.203125 29.59375 
L 56.203125 25.203125 
L 14.890625 25.203125 
Q 15.484375 15.921875 20.484375 11.0625 
Q 25.484375 6.203125 34.421875 6.203125 
Q 39.59375 6.203125 44.453125 7.46875 
Q 49.3125 8.734375 54.109375 11.28125 
L 54.109375 2.78125 
Q 49.265625 0.734375 44.1875 -0.34375 
Q 39.109375 -1.421875 33.890625 -1.421875 
Q 20.796875 -1.421875 13.15625 6.1875 
Q 5.515625 13.8125 5.515625 26.8125 
Q 5.515625 40.234375 12.765625 48.109375 
Q 20.015625 56 32.328125 56 
Q 43.359375 56 49.78125 48.890625 
Q 56.203125 41.796875 56.203125 29.59375 
z
M 47.21875 32.234375 
Q 47.125 39.59375 43.09375 43.984375 
Q 39.0625 48.390625 32.421875 48.390625 
Q 24.90625 48.390625 20.390625 44.140625 
Q 15.875 39.890625 15.1875 32.171875 
z
" id="DejaVuSans-101"/>
     </defs>
     <use xlink:href="#DejaVuSans-80"/>
     <use x="56.677734" xlink:href="#DejaVuSans-111"/>
     <use x="117.859375" xlink:href="#DejaVuSans-105"/>
     <use x="145.642578" xlink:href="#DejaVuSans-110"/>
     <use x="209.021484" xlink:href="#DejaVuSans-116"/>
     <use x="248.230469" xlink:href="#DejaVuSans-32"/>
     <use x="280.017578" xlink:href="#DejaVuSans-99"/>
     <use x="334.998047" xlink:href="#DejaVuSans-108"/>
     <use x="362.78125" xlink:href="#DejaVuSans-111"/>
     <use x="423.962891" xlink:href="#DejaVuSans-117"/>
     <use x="487.341797" xlink:href="#DejaVuSans-100"/>
     <use x="550.818359" xlink:href="#DejaVuSans-32"/>
     <use x="582.605469" xlink:href="#DejaVuSans-115"/>
     <use x="634.705078" xlink:href="#DejaVuSans-105"/>
     <use x="662.488281" xlink:href="#DejaVuSans-122"/>
     <use x="714.978516" xlink:href="#DejaVuSans-101"/>
    </g>
   </g>
  </g>
  <g id="axes_2">
   <g id="patch_37">
    <path d="M 543.894585 274.54 
L 950.605415 274.54 
L 950.605415 28.96 
L 543.894585 28.96 
z
" style="fill:#eaeaf2;"/>
   </g>
   <g id="matplotlib.axis_3">
    <g id="xtick_7">
     <g id="text_17">
      <!-- Knife -->
      <g style="fill:#262626;" transform="translate(559.639611 311.921562)rotate(-90)scale(0.11 -0.11)">
       <defs>
        <path d="M 9.8125 72.90625 
L 19.671875 72.90625 
L 19.671875 42.09375 
L 52.390625 72.90625 
L 65.09375 72.90625 
L 28.90625 38.921875 
L 67.671875 0 
L 54.6875 0 
L 19.671875 35.109375 
L 19.671875 0 
L 9.8125 0 
z
" id="DejaVuSans-75"/>
        <path d="M 37.109375 75.984375 
L 37.109375 68.5 
L 28.515625 68.5 
Q 23.6875 68.5 21.796875 66.546875 
Q 19.921875 64.59375 19.921875 59.515625 
L 19.921875 54.6875 
L 34.71875 54.6875 
L 34.71875 47.703125 
L 19.921875 47.703125 
L 19.921875 0 
L 10.890625 0 
L 10.890625 47.703125 
L 2.296875 47.703125 
L 2.296875 54.6875 
L 10.890625 54.6875 
L 10.890625 58.5 
Q 10.890625 67.625 15.140625 71.796875 
Q 19.390625 75.984375 28.609375 75.984375 
z
" id="DejaVuSans-102"/>
       </defs>
       <use xlink:href="#DejaVuSans-75"/>
       <use x="65.576172" xlink:href="#DejaVuSans-110"/>
       <use x="128.955078" xlink:href="#DejaVuSans-105"/>
       <use x="156.738281" xlink:href="#DejaVuSans-102"/>
       <use x="191.943359" xlink:href="#DejaVuSans-101"/>
      </g>
     </g>
    </g>
    <g id="xtick_8">
     <g id="text_18">
      <!-- Airplane -->
      <g style="fill:#262626;" transform="translate(585.059038 329.6625)rotate(-90)scale(0.11 -0.11)">
       <defs>
        <path d="M 34.1875 63.1875 
L 20.796875 26.90625 
L 47.609375 26.90625 
z
M 28.609375 72.90625 
L 39.796875 72.90625 
L 67.578125 0 
L 57.328125 0 
L 50.6875 18.703125 
L 17.828125 18.703125 
L 11.1875 0 
L 0.78125 0 
z
" id="DejaVuSans-65"/>
        <path d="M 41.109375 46.296875 
Q 39.59375 47.171875 37.8125 47.578125 
Q 36.03125 48 33.890625 48 
Q 26.265625 48 22.1875 43.046875 
Q 18.109375 38.09375 18.109375 28.8125 
L 18.109375 0 
L 9.078125 0 
L 9.078125 54.6875 
L 18.109375 54.6875 
L 18.109375 46.1875 
Q 20.953125 51.171875 25.484375 53.578125 
Q 30.03125 56 36.53125 56 
Q 37.453125 56 38.578125 55.875 
Q 39.703125 55.765625 41.0625 55.515625 
z
" id="DejaVuSans-114"/>
        <path d="M 34.28125 27.484375 
Q 23.390625 27.484375 19.1875 25 
Q 14.984375 22.515625 14.984375 16.5 
Q 14.984375 11.71875 18.140625 8.90625 
Q 21.296875 6.109375 26.703125 6.109375 
Q 34.1875 6.109375 38.703125 11.40625 
Q 43.21875 16.703125 43.21875 25.484375 
L 43.21875 27.484375 
z
M 52.203125 31.203125 
L 52.203125 0 
L 43.21875 0 
L 43.21875 8.296875 
Q 40.140625 3.328125 35.546875 0.953125 
Q 30.953125 -1.421875 24.3125 -1.421875 
Q 15.921875 -1.421875 10.953125 3.296875 
Q 6 8.015625 6 15.921875 
Q 6 25.140625 12.171875 29.828125 
Q 18.359375 34.515625 30.609375 34.515625 
L 43.21875 34.515625 
L 43.21875 35.40625 
Q 43.21875 41.609375 39.140625 45 
Q 35.0625 48.390625 27.6875 48.390625 
Q 23 48.390625 18.546875 47.265625 
Q 14.109375 46.140625 10.015625 43.890625 
L 10.015625 52.203125 
Q 14.9375 54.109375 19.578125 55.046875 
Q 24.21875 56 28.609375 56 
Q 40.484375 56 46.34375 49.84375 
Q 52.203125 43.703125 52.203125 31.203125 
z
" id="DejaVuSans-97"/>
       </defs>
       <use xlink:href="#DejaVuSans-65"/>
       <use x="68.408203" xlink:href="#DejaVuSans-105"/>
       <use x="96.191406" xlink:href="#DejaVuSans-114"/>
       <use x="137.304688" xlink:href="#DejaVuSans-112"/>
       <use x="200.78125" xlink:href="#DejaVuSans-108"/>
       <use x="228.564453" xlink:href="#DejaVuSans-97"/>
       <use x="289.84375" xlink:href="#DejaVuSans-110"/>
       <use x="353.222656" xlink:href="#DejaVuSans-101"/>
      </g>
     </g>
    </g>
    <g id="xtick_9">
     <g id="text_19">
      <!-- Laptop -->
      <g style="fill:#262626;" transform="translate(610.478465 321.919531)rotate(-90)scale(0.11 -0.11)">
       <defs>
        <path d="M 9.8125 72.90625 
L 19.671875 72.90625 
L 19.671875 8.296875 
L 55.171875 8.296875 
L 55.171875 0 
L 9.8125 0 
z
" id="DejaVuSans-76"/>
       </defs>
       <use xlink:href="#DejaVuSans-76"/>
       <use x="55.712891" xlink:href="#DejaVuSans-97"/>
       <use x="116.992188" xlink:href="#DejaVuSans-112"/>
       <use x="180.46875" xlink:href="#DejaVuSans-116"/>
       <use x="219.677734" xlink:href="#DejaVuSans-111"/>
       <use x="280.859375" xlink:href="#DejaVuSans-112"/>
      </g>
     </g>
    </g>
    <g id="xtick_10">
     <g id="text_20">
      <!-- Table -->
      <g style="fill:#262626;" transform="translate(635.897891 312.492188)rotate(-90)scale(0.11 -0.11)">
       <defs>
        <path d="M -0.296875 72.90625 
L 61.375 72.90625 
L 61.375 64.59375 
L 35.5 64.59375 
L 35.5 0 
L 25.59375 0 
L 25.59375 64.59375 
L -0.296875 64.59375 
z
" id="DejaVuSans-84"/>
        <path d="M 48.6875 27.296875 
Q 48.6875 37.203125 44.609375 42.84375 
Q 40.53125 48.484375 33.40625 48.484375 
Q 26.265625 48.484375 22.1875 42.84375 
Q 18.109375 37.203125 18.109375 27.296875 
Q 18.109375 17.390625 22.1875 11.75 
Q 26.265625 6.109375 33.40625 6.109375 
Q 40.53125 6.109375 44.609375 11.75 
Q 48.6875 17.390625 48.6875 27.296875 
z
M 18.109375 46.390625 
Q 20.953125 51.265625 25.265625 53.625 
Q 29.59375 56 35.59375 56 
Q 45.5625 56 51.78125 48.09375 
Q 58.015625 40.1875 58.015625 27.296875 
Q 58.015625 14.40625 51.78125 6.484375 
Q 45.5625 -1.421875 35.59375 -1.421875 
Q 29.59375 -1.421875 25.265625 0.953125 
Q 20.953125 3.328125 18.109375 8.203125 
L 18.109375 0 
L 9.078125 0 
L 9.078125 75.984375 
L 18.109375 75.984375 
z
" id="DejaVuSans-98"/>
       </defs>
       <use xlink:href="#DejaVuSans-84"/>
       <use x="44.583984" xlink:href="#DejaVuSans-97"/>
       <use x="105.863281" xlink:href="#DejaVuSans-98"/>
       <use x="169.339844" xlink:href="#DejaVuSans-108"/>
       <use x="197.123047" xlink:href="#DejaVuSans-101"/>
      </g>
     </g>
    </g>
    <g id="xtick_11">
     <g id="text_21">
      <!-- Chair -->
      <g style="fill:#262626;" transform="translate(661.317318 313.01125)rotate(-90)scale(0.11 -0.11)">
       <defs>
        <path d="M 54.890625 33.015625 
L 54.890625 0 
L 45.90625 0 
L 45.90625 32.71875 
Q 45.90625 40.484375 42.875 44.328125 
Q 39.84375 48.1875 33.796875 48.1875 
Q 26.515625 48.1875 22.3125 43.546875 
Q 18.109375 38.921875 18.109375 30.90625 
L 18.109375 0 
L 9.078125 0 
L 9.078125 75.984375 
L 18.109375 75.984375 
L 18.109375 46.1875 
Q 21.34375 51.125 25.703125 53.5625 
Q 30.078125 56 35.796875 56 
Q 45.21875 56 50.046875 50.171875 
Q 54.890625 44.34375 54.890625 33.015625 
z
" id="DejaVuSans-104"/>
       </defs>
       <use xlink:href="#DejaVuSans-67"/>
       <use x="69.824219" xlink:href="#DejaVuSans-104"/>
       <use x="133.203125" xlink:href="#DejaVuSans-97"/>
       <use x="194.482422" xlink:href="#DejaVuSans-105"/>
       <use x="222.265625" xlink:href="#DejaVuSans-114"/>
      </g>
     </g>
    </g>
    <g id="xtick_12">
     <g id="text_22">
      <!-- Lamp -->
      <g style="fill:#262626;" transform="translate(686.736745 314.607969)rotate(-90)scale(0.11 -0.11)">
       <use xlink:href="#DejaVuSans-76"/>
       <use x="55.712891" xlink:href="#DejaVuSans-97"/>
       <use x="116.992188" xlink:href="#DejaVuSans-109"/>
       <use x="214.404297" xlink:href="#DejaVuSans-112"/>
      </g>
     </g>
    </g>
    <g id="xtick_13">
     <g id="text_23">
      <!-- Guitar -->
      <g style="fill:#262626;" transform="translate(712.156172 318.165781)rotate(-90)scale(0.11 -0.11)">
       <defs>
        <path d="M 59.515625 10.40625 
L 59.515625 29.984375 
L 43.40625 29.984375 
L 43.40625 38.09375 
L 69.28125 38.09375 
L 69.28125 6.78125 
Q 63.578125 2.734375 56.6875 0.65625 
Q 49.8125 -1.421875 42 -1.421875 
Q 24.90625 -1.421875 15.25 8.5625 
Q 5.609375 18.5625 5.609375 36.375 
Q 5.609375 54.25 15.25 64.234375 
Q 24.90625 74.21875 42 74.21875 
Q 49.125 74.21875 55.546875 72.453125 
Q 61.96875 70.703125 67.390625 67.28125 
L 67.390625 56.78125 
Q 61.921875 61.421875 55.765625 63.765625 
Q 49.609375 66.109375 42.828125 66.109375 
Q 29.4375 66.109375 22.71875 58.640625 
Q 16.015625 51.171875 16.015625 36.375 
Q 16.015625 21.625 22.71875 14.15625 
Q 29.4375 6.6875 42.828125 6.6875 
Q 48.046875 6.6875 52.140625 7.59375 
Q 56.25 8.5 59.515625 10.40625 
z
" id="DejaVuSans-71"/>
       </defs>
       <use xlink:href="#DejaVuSans-71"/>
       <use x="77.490234" xlink:href="#DejaVuSans-117"/>
       <use x="140.869141" xlink:href="#DejaVuSans-105"/>
       <use x="168.652344" xlink:href="#DejaVuSans-116"/>
       <use x="207.861328" xlink:href="#DejaVuSans-97"/>
       <use x="269.140625" xlink:href="#DejaVuSans-114"/>
      </g>
     </g>
    </g>
    <g id="xtick_14">
     <g id="text_24">
      <!-- Earphone -->
      <g style="fill:#262626;" transform="translate(737.575599 336.678438)rotate(-90)scale(0.11 -0.11)">
       <defs>
        <path d="M 9.8125 72.90625 
L 55.90625 72.90625 
L 55.90625 64.59375 
L 19.671875 64.59375 
L 19.671875 43.015625 
L 54.390625 43.015625 
L 54.390625 34.71875 
L 19.671875 34.71875 
L 19.671875 8.296875 
L 56.78125 8.296875 
L 56.78125 0 
L 9.8125 0 
z
" id="DejaVuSans-69"/>
       </defs>
       <use xlink:href="#DejaVuSans-69"/>
       <use x="63.183594" xlink:href="#DejaVuSans-97"/>
       <use x="124.462891" xlink:href="#DejaVuSans-114"/>
       <use x="165.576172" xlink:href="#DejaVuSans-112"/>
       <use x="229.052734" xlink:href="#DejaVuSans-104"/>
       <use x="292.431641" xlink:href="#DejaVuSans-111"/>
       <use x="353.613281" xlink:href="#DejaVuSans-110"/>
       <use x="416.992188" xlink:href="#DejaVuSans-101"/>
      </g>
     </g>
    </g>
    <g id="xtick_15">
     <g id="text_25">
      <!-- Rocket -->
      <g style="fill:#262626;" transform="translate(762.995026 321.018906)rotate(-90)scale(0.11 -0.11)">
       <defs>
        <path d="M 44.390625 34.1875 
Q 47.5625 33.109375 50.5625 29.59375 
Q 53.5625 26.078125 56.59375 19.921875 
L 66.609375 0 
L 56 0 
L 46.6875 18.703125 
Q 43.0625 26.03125 39.671875 28.421875 
Q 36.28125 30.8125 30.421875 30.8125 
L 19.671875 30.8125 
L 19.671875 0 
L 9.8125 0 
L 9.8125 72.90625 
L 32.078125 72.90625 
Q 44.578125 72.90625 50.734375 67.671875 
Q 56.890625 62.453125 56.890625 51.90625 
Q 56.890625 45.015625 53.6875 40.46875 
Q 50.484375 35.9375 44.390625 34.1875 
z
M 19.671875 64.796875 
L 19.671875 38.921875 
L 32.078125 38.921875 
Q 39.203125 38.921875 42.84375 42.21875 
Q 46.484375 45.515625 46.484375 51.90625 
Q 46.484375 58.296875 42.84375 61.546875 
Q 39.203125 64.796875 32.078125 64.796875 
z
" id="DejaVuSans-82"/>
        <path d="M 9.078125 75.984375 
L 18.109375 75.984375 
L 18.109375 31.109375 
L 44.921875 54.6875 
L 56.390625 54.6875 
L 27.390625 29.109375 
L 57.625 0 
L 45.90625 0 
L 18.109375 26.703125 
L 18.109375 0 
L 9.078125 0 
z
" id="DejaVuSans-107"/>
       </defs>
       <use xlink:href="#DejaVuSans-82"/>
       <use x="64.982422" xlink:href="#DejaVuSans-111"/>
       <use x="126.164062" xlink:href="#DejaVuSans-99"/>
       <use x="181.144531" xlink:href="#DejaVuSans-107"/>
       <use x="235.429688" xlink:href="#DejaVuSans-101"/>
       <use x="296.953125" xlink:href="#DejaVuSans-116"/>
      </g>
     </g>
    </g>
    <g id="xtick_16">
     <g id="text_26">
      <!-- Mug -->
      <g style="fill:#262626;" transform="translate(788.414453 307.485469)rotate(-90)scale(0.11 -0.11)">
       <defs>
        <path d="M 9.8125 72.90625 
L 24.515625 72.90625 
L 43.109375 23.296875 
L 61.8125 72.90625 
L 76.515625 72.90625 
L 76.515625 0 
L 66.890625 0 
L 66.890625 64.015625 
L 48.09375 14.015625 
L 38.1875 14.015625 
L 19.390625 64.015625 
L 19.390625 0 
L 9.8125 0 
z
" id="DejaVuSans-77"/>
        <path d="M 45.40625 27.984375 
Q 45.40625 37.75 41.375 43.109375 
Q 37.359375 48.484375 30.078125 48.484375 
Q 22.859375 48.484375 18.828125 43.109375 
Q 14.796875 37.75 14.796875 27.984375 
Q 14.796875 18.265625 18.828125 12.890625 
Q 22.859375 7.515625 30.078125 7.515625 
Q 37.359375 7.515625 41.375 12.890625 
Q 45.40625 18.265625 45.40625 27.984375 
z
M 54.390625 6.78125 
Q 54.390625 -7.171875 48.1875 -13.984375 
Q 42 -20.796875 29.203125 -20.796875 
Q 24.46875 -20.796875 20.265625 -20.09375 
Q 16.0625 -19.390625 12.109375 -17.921875 
L 12.109375 -9.1875 
Q 16.0625 -11.328125 19.921875 -12.34375 
Q 23.78125 -13.375 27.78125 -13.375 
Q 36.625 -13.375 41.015625 -8.765625 
Q 45.40625 -4.15625 45.40625 5.171875 
L 45.40625 9.625 
Q 42.625 4.78125 38.28125 2.390625 
Q 33.9375 0 27.875 0 
Q 17.828125 0 11.671875 7.65625 
Q 5.515625 15.328125 5.515625 27.984375 
Q 5.515625 40.671875 11.671875 48.328125 
Q 17.828125 56 27.875 56 
Q 33.9375 56 38.28125 53.609375 
Q 42.625 51.21875 45.40625 46.390625 
L 45.40625 54.6875 
L 54.390625 54.6875 
z
" id="DejaVuSans-103"/>
       </defs>
       <use xlink:href="#DejaVuSans-77"/>
       <use x="86.279297" xlink:href="#DejaVuSans-117"/>
       <use x="149.658203" xlink:href="#DejaVuSans-103"/>
      </g>
     </g>
    </g>
    <g id="xtick_17">
     <g id="text_27">
      <!-- Car -->
      <g style="fill:#262626;" transform="translate(813.83388 302.984062)rotate(-90)scale(0.11 -0.11)">
       <use xlink:href="#DejaVuSans-67"/>
       <use x="69.824219" xlink:href="#DejaVuSans-97"/>
       <use x="131.103516" xlink:href="#DejaVuSans-114"/>
      </g>
     </g>
    </g>
    <g id="xtick_18">
     <g id="text_28">
      <!-- Pistol -->
      <g style="fill:#262626;" transform="translate(839.253307 313.310313)rotate(-90)scale(0.11 -0.11)">
       <use xlink:href="#DejaVuSans-80"/>
       <use x="58.052734" xlink:href="#DejaVuSans-105"/>
       <use x="85.835938" xlink:href="#DejaVuSans-115"/>
       <use x="137.935547" xlink:href="#DejaVuSans-116"/>
       <use x="177.144531" xlink:href="#DejaVuSans-111"/>
       <use x="238.326172" xlink:href="#DejaVuSans-108"/>
      </g>
     </g>
    </g>
    <g id="xtick_19">
     <g id="text_29">
      <!-- Bag -->
      <g style="fill:#262626;" transform="translate(864.672734 305.31125)rotate(-90)scale(0.11 -0.11)">
       <defs>
        <path d="M 19.671875 34.8125 
L 19.671875 8.109375 
L 35.5 8.109375 
Q 43.453125 8.109375 47.28125 11.40625 
Q 51.125 14.703125 51.125 21.484375 
Q 51.125 28.328125 47.28125 31.5625 
Q 43.453125 34.8125 35.5 34.8125 
z
M 19.671875 64.796875 
L 19.671875 42.828125 
L 34.28125 42.828125 
Q 41.5 42.828125 45.03125 45.53125 
Q 48.578125 48.25 48.578125 53.8125 
Q 48.578125 59.328125 45.03125 62.0625 
Q 41.5 64.796875 34.28125 64.796875 
z
M 9.8125 72.90625 
L 35.015625 72.90625 
Q 46.296875 72.90625 52.390625 68.21875 
Q 58.5 63.53125 58.5 54.890625 
Q 58.5 48.1875 55.375 44.234375 
Q 52.25 40.28125 46.1875 39.3125 
Q 53.46875 37.75 57.5 32.78125 
Q 61.53125 27.828125 61.53125 20.40625 
Q 61.53125 10.640625 54.890625 5.3125 
Q 48.25 0 35.984375 0 
L 9.8125 0 
z
" id="DejaVuSans-66"/>
       </defs>
       <use xlink:href="#DejaVuSans-66"/>
       <use x="68.603516" xlink:href="#DejaVuSans-97"/>
       <use x="129.882812" xlink:href="#DejaVuSans-103"/>
      </g>
     </g>
    </g>
    <g id="xtick_20">
     <g id="text_30">
      <!-- Motorbike -->
      <g style="fill:#262626;" transform="translate(890.09216 338.605156)rotate(-90)scale(0.11 -0.11)">
       <use xlink:href="#DejaVuSans-77"/>
       <use x="86.279297" xlink:href="#DejaVuSans-111"/>
       <use x="147.460938" xlink:href="#DejaVuSans-116"/>
       <use x="186.669922" xlink:href="#DejaVuSans-111"/>
       <use x="247.851562" xlink:href="#DejaVuSans-114"/>
       <use x="288.964844" xlink:href="#DejaVuSans-98"/>
       <use x="352.441406" xlink:href="#DejaVuSans-105"/>
       <use x="380.224609" xlink:href="#DejaVuSans-107"/>
       <use x="434.509766" xlink:href="#DejaVuSans-101"/>
      </g>
     </g>
    </g>
    <g id="xtick_21">
     <g id="text_31">
      <!-- Cap -->
      <g style="fill:#262626;" transform="translate(915.511587 305.445312)rotate(-90)scale(0.11 -0.11)">
       <use xlink:href="#DejaVuSans-67"/>
       <use x="69.824219" xlink:href="#DejaVuSans-97"/>
       <use x="131.103516" xlink:href="#DejaVuSans-112"/>
      </g>
     </g>
    </g>
    <g id="xtick_22">
     <g id="text_32">
      <!-- Skateboard -->
      <g style="fill:#262626;" transform="translate(940.931014 346.789844)rotate(-90)scale(0.11 -0.11)">
       <defs>
        <path d="M 53.515625 70.515625 
L 53.515625 60.890625 
Q 47.90625 63.578125 42.921875 64.890625 
Q 37.9375 66.21875 33.296875 66.21875 
Q 25.25 66.21875 20.875 63.09375 
Q 16.5 59.96875 16.5 54.203125 
Q 16.5 49.359375 19.40625 46.890625 
Q 22.3125 44.4375 30.421875 42.921875 
L 36.375 41.703125 
Q 47.40625 39.59375 52.65625 34.296875 
Q 57.90625 29 57.90625 20.125 
Q 57.90625 9.515625 50.796875 4.046875 
Q 43.703125 -1.421875 29.984375 -1.421875 
Q 24.8125 -1.421875 18.96875 -0.25 
Q 13.140625 0.921875 6.890625 3.21875 
L 6.890625 13.375 
Q 12.890625 10.015625 18.65625 8.296875 
Q 24.421875 6.59375 29.984375 6.59375 
Q 38.421875 6.59375 43.015625 9.90625 
Q 47.609375 13.234375 47.609375 19.390625 
Q 47.609375 24.75 44.3125 27.78125 
Q 41.015625 30.8125 33.5 32.328125 
L 27.484375 33.5 
Q 16.453125 35.6875 11.515625 40.375 
Q 6.59375 45.0625 6.59375 53.421875 
Q 6.59375 63.09375 13.40625 68.65625 
Q 20.21875 74.21875 32.171875 74.21875 
Q 37.3125 74.21875 42.625 73.28125 
Q 47.953125 72.359375 53.515625 70.515625 
z
" id="DejaVuSans-83"/>
       </defs>
       <use xlink:href="#DejaVuSans-83"/>
       <use x="63.476562" xlink:href="#DejaVuSans-107"/>
       <use x="119.636719" xlink:href="#DejaVuSans-97"/>
       <use x="180.916016" xlink:href="#DejaVuSans-116"/>
       <use x="220.125" xlink:href="#DejaVuSans-101"/>
       <use x="281.648438" xlink:href="#DejaVuSans-98"/>
       <use x="345.125" xlink:href="#DejaVuSans-111"/>
       <use x="406.306641" xlink:href="#DejaVuSans-97"/>
       <use x="467.585938" xlink:href="#DejaVuSans-114"/>
       <use x="506.949219" xlink:href="#DejaVuSans-100"/>
      </g>
     </g>
    </g>
   </g>
   <g id="matplotlib.axis_4">
    <g id="ytick_8">
     <g id="line2d_14">
      <path clip-path="url(#pd9018d671e)" d="M 543.894585 274.54 
L 950.605415 274.54 
" style="fill:none;stroke:#ffffff;stroke-linecap:round;"/>
     </g>
     <g id="text_33">
      <!-- 0 -->
      <g style="fill:#262626;" transform="translate(527.395835 278.719141)scale(0.11 -0.11)">
       <use xlink:href="#DejaVuSans-48"/>
      </g>
     </g>
    </g>
    <g id="ytick_9">
     <g id="line2d_15">
      <path clip-path="url(#pd9018d671e)" d="M 543.894585 233.113185 
L 950.605415 233.113185 
" style="fill:none;stroke:#ffffff;stroke-linecap:round;"/>
     </g>
     <g id="text_34">
      <!-- 500 -->
      <g style="fill:#262626;" transform="translate(513.398335 237.292325)scale(0.11 -0.11)">
       <use xlink:href="#DejaVuSans-53"/>
       <use x="63.623047" xlink:href="#DejaVuSans-48"/>
       <use x="127.246094" xlink:href="#DejaVuSans-48"/>
      </g>
     </g>
    </g>
    <g id="ytick_10">
     <g id="line2d_16">
      <path clip-path="url(#pd9018d671e)" d="M 543.894585 191.686369 
L 950.605415 191.686369 
" style="fill:none;stroke:#ffffff;stroke-linecap:round;"/>
     </g>
     <g id="text_35">
      <!-- 1000 -->
      <g style="fill:#262626;" transform="translate(506.399585 195.86551)scale(0.11 -0.11)">
       <use xlink:href="#DejaVuSans-49"/>
       <use x="63.623047" xlink:href="#DejaVuSans-48"/>
       <use x="127.246094" xlink:href="#DejaVuSans-48"/>
       <use x="190.869141" xlink:href="#DejaVuSans-48"/>
      </g>
     </g>
    </g>
    <g id="ytick_11">
     <g id="line2d_17">
      <path clip-path="url(#pd9018d671e)" d="M 543.894585 150.259554 
L 950.605415 150.259554 
" style="fill:none;stroke:#ffffff;stroke-linecap:round;"/>
     </g>
     <g id="text_36">
      <!-- 1500 -->
      <g style="fill:#262626;" transform="translate(506.399585 154.438694)scale(0.11 -0.11)">
       <use xlink:href="#DejaVuSans-49"/>
       <use x="63.623047" xlink:href="#DejaVuSans-53"/>
       <use x="127.246094" xlink:href="#DejaVuSans-48"/>
       <use x="190.869141" xlink:href="#DejaVuSans-48"/>
      </g>
     </g>
    </g>
    <g id="ytick_12">
     <g id="line2d_18">
      <path clip-path="url(#pd9018d671e)" d="M 543.894585 108.832738 
L 950.605415 108.832738 
" style="fill:none;stroke:#ffffff;stroke-linecap:round;"/>
     </g>
     <g id="text_37">
      <!-- 2000 -->
      <g style="fill:#262626;" transform="translate(506.399585 113.011879)scale(0.11 -0.11)">
       <use xlink:href="#DejaVuSans-50"/>
       <use x="63.623047" xlink:href="#DejaVuSans-48"/>
       <use x="127.246094" xlink:href="#DejaVuSans-48"/>
       <use x="190.869141" xlink:href="#DejaVuSans-48"/>
      </g>
     </g>
    </g>
    <g id="ytick_13">
     <g id="line2d_19">
      <path clip-path="url(#pd9018d671e)" d="M 543.894585 67.405923 
L 950.605415 67.405923 
" style="fill:none;stroke:#ffffff;stroke-linecap:round;"/>
     </g>
     <g id="text_38">
      <!-- 2500 -->
      <g style="fill:#262626;" transform="translate(506.399585 71.585063)scale(0.11 -0.11)">
       <use xlink:href="#DejaVuSans-50"/>
       <use x="63.623047" xlink:href="#DejaVuSans-53"/>
       <use x="127.246094" xlink:href="#DejaVuSans-48"/>
       <use x="190.869141" xlink:href="#DejaVuSans-48"/>
      </g>
     </g>
    </g>
    <g id="text_39">
     <!-- Num points -->
     <g style="fill:#262626;" transform="translate(499.90396 186.22)rotate(-90)scale(0.12 -0.12)">
      <use xlink:href="#DejaVuSans-78"/>
      <use x="74.804688" xlink:href="#DejaVuSans-117"/>
      <use x="138.183594" xlink:href="#DejaVuSans-109"/>
      <use x="235.595703" xlink:href="#DejaVuSans-32"/>
      <use x="267.382812" xlink:href="#DejaVuSans-112"/>
      <use x="330.859375" xlink:href="#DejaVuSans-111"/>
      <use x="392.041016" xlink:href="#DejaVuSans-105"/>
      <use x="419.824219" xlink:href="#DejaVuSans-110"/>
      <use x="483.203125" xlink:href="#DejaVuSans-116"/>
      <use x="522.412109" xlink:href="#DejaVuSans-115"/>
     </g>
    </g>
   </g>
   <g id="patch_38">
    <path clip-path="url(#pd9018d671e)" d="M 546.436528 274.54 
L 566.772069 274.54 
L 566.772069 98.47753 
L 546.436528 98.47753 
z
" style="fill:#ea96a3;stroke:#ffffff;stroke-linejoin:miter;"/>
   </g>
   <g id="patch_39">
    <path clip-path="url(#pd9018d671e)" d="M 571.855954 274.54 
L 592.191496 274.54 
L 592.191496 61.178148 
L 571.855954 61.178148 
z
" style="fill:#e69576;stroke:#ffffff;stroke-linejoin:miter;"/>
   </g>
   <g id="patch_40">
    <path clip-path="url(#pd9018d671e)" d="M 597.275381 274.54 
L 617.610923 274.54 
L 617.610923 45.840452 
L 597.275381 45.840452 
z
" style="fill:#ca984c;stroke:#ffffff;stroke-linejoin:miter;"/>
   </g>
   <g id="patch_41">
    <path clip-path="url(#pd9018d671e)" d="M 622.694808 274.54 
L 643.03035 274.54 
L 643.03035 48.918631 
L 622.694808 48.918631 
z
" style="fill:#b09d48;stroke:#ffffff;stroke-linejoin:miter;"/>
   </g>
   <g id="patch_42">
    <path clip-path="url(#pd9018d671e)" d="M 648.114235 274.54 
L 668.449777 274.54 
L 668.449777 50.368529 
L 648.114235 50.368529 
z
" style="fill:#98a246;stroke:#ffffff;stroke-linejoin:miter;"/>
   </g>
   <g id="patch_43">
    <path clip-path="url(#pd9018d671e)" d="M 673.533662 274.54 
L 693.869204 274.54 
L 693.869204 94.408203 
L 673.533662 94.408203 
z
" style="fill:#76ab47;stroke:#ffffff;stroke-linejoin:miter;"/>
   </g>
   <g id="patch_44">
    <path clip-path="url(#pd9018d671e)" d="M 698.953089 274.54 
L 719.28863 274.54 
L 719.28863 79.023056 
L 698.953089 79.023056 
z
" style="fill:#49af72;stroke:#ffffff;stroke-linejoin:miter;"/>
   </g>
   <g id="patch_45">
    <path clip-path="url(#pd9018d671e)" d="M 724.372516 274.54 
L 744.708057 274.54 
L 744.708057 68.019716 
L 724.372516 68.019716 
z
" style="fill:#4aad92;stroke:#ffffff;stroke-linejoin:miter;"/>
   </g>
   <g id="patch_46">
    <path clip-path="url(#pd9018d671e)" d="M 749.791943 274.54 
L 770.127484 274.54 
L 770.127484 78.774882 
L 749.791943 78.774882 
z
" style="fill:#4baba4;stroke:#ffffff;stroke-linejoin:miter;"/>
   </g>
   <g id="patch_47">
    <path clip-path="url(#pd9018d671e)" d="M 775.21137 274.54 
L 795.546911 274.54 
L 795.546911 41.301293 
L 775.21137 41.301293 
z
" style="fill:#4eabb6;stroke:#ffffff;stroke-linejoin:miter;"/>
   </g>
   <g id="patch_48">
    <path clip-path="url(#pd9018d671e)" d="M 800.630796 274.54 
L 820.966338 274.54 
L 820.966338 45.620447 
L 800.630796 45.620447 
z
" style="fill:#53accd;stroke:#ffffff;stroke-linejoin:miter;"/>
   </g>
   <g id="patch_49">
    <path clip-path="url(#pd9018d671e)" d="M 826.050223 274.54 
L 846.385765 274.54 
L 846.385765 54.485513 
L 826.050223 54.485513 
z
" style="fill:#88aee6;stroke:#ffffff;stroke-linejoin:miter;"/>
   </g>
   <g id="patch_50">
    <path clip-path="url(#pd9018d671e)" d="M 851.46965 274.54 
L 871.805192 274.54 
L 871.805192 47.685224 
L 851.46965 47.685224 
z
" style="fill:#b6a8eb;stroke:#ffffff;stroke-linejoin:miter;"/>
   </g>
   <g id="patch_51">
    <path clip-path="url(#pd9018d671e)" d="M 876.889077 274.54 
L 897.224619 274.54 
L 897.224619 48.475525 
L 876.889077 48.475525 
z
" style="fill:#d497e8;stroke:#ffffff;stroke-linejoin:miter;"/>
   </g>
   <g id="patch_52">
    <path clip-path="url(#pd9018d671e)" d="M 902.308504 274.54 
L 922.644046 274.54 
L 922.644046 57.39338 
L 902.308504 57.39338 
z
" style="fill:#e78cd7;stroke:#ffffff;stroke-linejoin:miter;"/>
   </g>
   <g id="patch_53">
    <path clip-path="url(#pd9018d671e)" d="M 927.727931 274.54 
L 948.063472 274.54 
L 948.063472 65.823106 
L 927.727931 65.823106 
z
" style="fill:#e992be;stroke:#ffffff;stroke-linejoin:miter;"/>
   </g>
   <g id="line2d_20">
    <path clip-path="url(#pd9018d671e)" d="M 556.604298 101.768165 
L 556.604298 95.239187 
" style="fill:none;stroke:#424242;stroke-linecap:round;stroke-width:2.7;"/>
   </g>
   <g id="line2d_21">
    <path clip-path="url(#pd9018d671e)" d="M 582.023725 61.536524 
L 582.023725 60.813187 
" style="fill:none;stroke:#424242;stroke-linecap:round;stroke-width:2.7;"/>
   </g>
   <g id="line2d_22">
    <path clip-path="url(#pd9018d671e)" d="M 607.443152 46.20722 
L 607.443152 45.50159 
" style="fill:none;stroke:#424242;stroke-linecap:round;stroke-width:2.7;"/>
   </g>
   <g id="line2d_23">
    <path clip-path="url(#pd9018d671e)" d="M 632.862579 49.18181 
L 632.862579 48.662567 
" style="fill:none;stroke:#424242;stroke-linecap:round;stroke-width:2.7;"/>
   </g>
   <g id="line2d_24">
    <path clip-path="url(#pd9018d671e)" d="M 658.282006 50.693802 
L 658.282006 50.061154 
" style="fill:none;stroke:#424242;stroke-linecap:round;stroke-width:2.7;"/>
   </g>
   <g id="line2d_25">
    <path clip-path="url(#pd9018d671e)" d="M 683.701433 97.183807 
L 683.701433 91.51883 
" style="fill:none;stroke:#424242;stroke-linecap:round;stroke-width:2.7;"/>
   </g>
   <g id="line2d_26">
    <path clip-path="url(#pd9018d671e)" d="M 709.12086 80.250303 
L 709.12086 77.731425 
" style="fill:none;stroke:#424242;stroke-linecap:round;stroke-width:2.7;"/>
   </g>
   <g id="line2d_27">
    <path clip-path="url(#pd9018d671e)" d="M 734.540287 77.537654 
L 734.540287 60.180579 
" style="fill:none;stroke:#424242;stroke-linecap:round;stroke-width:2.7;"/>
   </g>
   <g id="line2d_28">
    <path clip-path="url(#pd9018d671e)" d="M 759.959713 83.764291 
L 759.959713 73.909077 
" style="fill:none;stroke:#424242;stroke-linecap:round;stroke-width:2.7;"/>
   </g>
   <g id="line2d_29">
    <path clip-path="url(#pd9018d671e)" d="M 785.37914 41.983943 
L 785.37914 40.654286 
" style="fill:none;stroke:#424242;stroke-linecap:round;stroke-width:2.7;"/>
   </g>
   <g id="line2d_30">
    <path clip-path="url(#pd9018d671e)" d="M 810.798567 46.348204 
L 810.798567 44.939321 
" style="fill:none;stroke:#424242;stroke-linecap:round;stroke-width:2.7;"/>
   </g>
   <g id="line2d_31">
    <path clip-path="url(#pd9018d671e)" d="M 836.217994 55.622293 
L 836.217994 53.466959 
" style="fill:none;stroke:#424242;stroke-linecap:round;stroke-width:2.7;"/>
   </g>
   <g id="line2d_32">
    <path clip-path="url(#pd9018d671e)" d="M 861.637421 49.187905 
L 861.637421 46.244377 
" style="fill:none;stroke:#424242;stroke-linecap:round;stroke-width:2.7;"/>
   </g>
   <g id="line2d_33">
    <path clip-path="url(#pd9018d671e)" d="M 887.056848 50.158581 
L 887.056848 46.830549 
" style="fill:none;stroke:#424242;stroke-linecap:round;stroke-width:2.7;"/>
   </g>
   <g id="line2d_34">
    <path clip-path="url(#pd9018d671e)" d="M 912.476275 59.687735 
L 912.476275 54.786146 
" style="fill:none;stroke:#424242;stroke-linecap:round;stroke-width:2.7;"/>
   </g>
   <g id="line2d_35">
    <path clip-path="url(#pd9018d671e)" d="M 937.895702 67.852941 
L 937.895702 63.648042 
" style="fill:none;stroke:#424242;stroke-linecap:round;stroke-width:2.7;"/>
   </g>
   <g id="patch_54">
    <path d="M 543.894585 274.54 
L 543.894585 28.96 
" style="fill:none;stroke:#ffffff;stroke-linecap:square;stroke-linejoin:miter;stroke-width:1.25;"/>
   </g>
   <g id="patch_55">
    <path d="M 950.605415 274.54 
L 950.605415 28.96 
" style="fill:none;stroke:#ffffff;stroke-linecap:square;stroke-linejoin:miter;stroke-width:1.25;"/>
   </g>
   <g id="patch_56">
    <path d="M 543.894585 274.54 
L 950.605415 274.54 
" style="fill:none;stroke:#ffffff;stroke-linecap:square;stroke-linejoin:miter;stroke-width:1.25;"/>
   </g>
   <g id="patch_57">
    <path d="M 543.894585 28.96 
L 950.605415 28.96 
" style="fill:none;stroke:#ffffff;stroke-linecap:square;stroke-linejoin:miter;stroke-width:1.25;"/>
   </g>
   <g id="text_40">
    <!-- Point cloud size per category -->
    <g style="fill:#262626;" transform="translate(660.361562 22.96)scale(0.12 -0.12)">
     <defs>
      <path d="M 32.171875 -5.078125 
Q 28.375 -14.84375 24.75 -17.8125 
Q 21.140625 -20.796875 15.09375 -20.796875 
L 7.90625 -20.796875 
L 7.90625 -13.28125 
L 13.1875 -13.28125 
Q 16.890625 -13.28125 18.9375 -11.515625 
Q 21 -9.765625 23.484375 -3.21875 
L 25.09375 0.875 
L 2.984375 54.6875 
L 12.5 54.6875 
L 29.59375 11.921875 
L 46.6875 54.6875 
L 56.203125 54.6875 
z
" id="DejaVuSans-121"/>
     </defs>
     <use xlink:href="#DejaVuSans-80"/>
     <use x="56.677734" xlink:href="#DejaVuSans-111"/>
     <use x="117.859375" xlink:href="#DejaVuSans-105"/>
     <use x="145.642578" xlink:href="#DejaVuSans-110"/>
     <use x="209.021484" xlink:href="#DejaVuSans-116"/>
     <use x="248.230469" xlink:href="#DejaVuSans-32"/>
     <use x="280.017578" xlink:href="#DejaVuSans-99"/>
     <use x="334.998047" xlink:href="#DejaVuSans-108"/>
     <use x="362.78125" xlink:href="#DejaVuSans-111"/>
     <use x="423.962891" xlink:href="#DejaVuSans-117"/>
     <use x="487.341797" xlink:href="#DejaVuSans-100"/>
     <use x="550.818359" xlink:href="#DejaVuSans-32"/>
     <use x="582.605469" xlink:href="#DejaVuSans-115"/>
     <use x="634.705078" xlink:href="#DejaVuSans-105"/>
     <use x="662.488281" xlink:href="#DejaVuSans-122"/>
     <use x="714.978516" xlink:href="#DejaVuSans-101"/>
     <use x="776.501953" xlink:href="#DejaVuSans-32"/>
     <use x="808.289062" xlink:href="#DejaVuSans-112"/>
     <use x="871.765625" xlink:href="#DejaVuSans-101"/>
     <use x="933.289062" xlink:href="#DejaVuSans-114"/>
     <use x="974.402344" xlink:href="#DejaVuSans-32"/>
     <use x="1006.189453" xlink:href="#DejaVuSans-99"/>
     <use x="1061.169922" xlink:href="#DejaVuSans-97"/>
     <use x="1122.449219" xlink:href="#DejaVuSans-116"/>
     <use x="1161.658203" xlink:href="#DejaVuSans-101"/>
     <use x="1223.181641" xlink:href="#DejaVuSans-103"/>
     <use x="1286.658203" xlink:href="#DejaVuSans-111"/>
     <use x="1347.839844" xlink:href="#DejaVuSans-114"/>
     <use x="1388.953125" xlink:href="#DejaVuSans-121"/>
    </g>
   </g>
  </g>
  <g id="axes_3">
   <g id="patch_58">
    <path d="M 1020.32917 274.54 
L 1427.04 274.54 
L 1427.04 28.96 
L 1020.32917 28.96 
z
" style="fill:#eaeaf2;"/>
   </g>
   <g id="matplotlib.axis_5">
    <g id="xtick_23">
     <g id="text_41">
      <!-- Knife -->
      <g style="fill:#262626;" transform="translate(1036.074196 311.921562)rotate(-90)scale(0.11 -0.11)">
       <use xlink:href="#DejaVuSans-75"/>
       <use x="65.576172" xlink:href="#DejaVuSans-110"/>
       <use x="128.955078" xlink:href="#DejaVuSans-105"/>
       <use x="156.738281" xlink:href="#DejaVuSans-102"/>
       <use x="191.943359" xlink:href="#DejaVuSans-101"/>
      </g>
     </g>
    </g>
    <g id="xtick_24">
     <g id="text_42">
      <!-- Airplane -->
      <g style="fill:#262626;" transform="translate(1061.493623 329.6625)rotate(-90)scale(0.11 -0.11)">
       <use xlink:href="#DejaVuSans-65"/>
       <use x="68.408203" xlink:href="#DejaVuSans-105"/>
       <use x="96.191406" xlink:href="#DejaVuSans-114"/>
       <use x="137.304688" xlink:href="#DejaVuSans-112"/>
       <use x="200.78125" xlink:href="#DejaVuSans-108"/>
       <use x="228.564453" xlink:href="#DejaVuSans-97"/>
       <use x="289.84375" xlink:href="#DejaVuSans-110"/>
       <use x="353.222656" xlink:href="#DejaVuSans-101"/>
      </g>
     </g>
    </g>
    <g id="xtick_25">
     <g id="text_43">
      <!-- Laptop -->
      <g style="fill:#262626;" transform="translate(1086.913049 321.919531)rotate(-90)scale(0.11 -0.11)">
       <use xlink:href="#DejaVuSans-76"/>
       <use x="55.712891" xlink:href="#DejaVuSans-97"/>
       <use x="116.992188" xlink:href="#DejaVuSans-112"/>
       <use x="180.46875" xlink:href="#DejaVuSans-116"/>
       <use x="219.677734" xlink:href="#DejaVuSans-111"/>
       <use x="280.859375" xlink:href="#DejaVuSans-112"/>
      </g>
     </g>
    </g>
    <g id="xtick_26">
     <g id="text_44">
      <!-- Table -->
      <g style="fill:#262626;" transform="translate(1112.332476 312.492188)rotate(-90)scale(0.11 -0.11)">
       <use xlink:href="#DejaVuSans-84"/>
       <use x="44.583984" xlink:href="#DejaVuSans-97"/>
       <use x="105.863281" xlink:href="#DejaVuSans-98"/>
       <use x="169.339844" xlink:href="#DejaVuSans-108"/>
       <use x="197.123047" xlink:href="#DejaVuSans-101"/>
      </g>
     </g>
    </g>
    <g id="xtick_27">
     <g id="text_45">
      <!-- Chair -->
      <g style="fill:#262626;" transform="translate(1137.751903 313.01125)rotate(-90)scale(0.11 -0.11)">
       <use xlink:href="#DejaVuSans-67"/>
       <use x="69.824219" xlink:href="#DejaVuSans-104"/>
       <use x="133.203125" xlink:href="#DejaVuSans-97"/>
       <use x="194.482422" xlink:href="#DejaVuSans-105"/>
       <use x="222.265625" xlink:href="#DejaVuSans-114"/>
      </g>
     </g>
    </g>
    <g id="xtick_28">
     <g id="text_46">
      <!-- Lamp -->
      <g style="fill:#262626;" transform="translate(1163.17133 314.607969)rotate(-90)scale(0.11 -0.11)">
       <use xlink:href="#DejaVuSans-76"/>
       <use x="55.712891" xlink:href="#DejaVuSans-97"/>
       <use x="116.992188" xlink:href="#DejaVuSans-109"/>
       <use x="214.404297" xlink:href="#DejaVuSans-112"/>
      </g>
     </g>
    </g>
    <g id="xtick_29">
     <g id="text_47">
      <!-- Guitar -->
      <g style="fill:#262626;" transform="translate(1188.590757 318.165781)rotate(-90)scale(0.11 -0.11)">
       <use xlink:href="#DejaVuSans-71"/>
       <use x="77.490234" xlink:href="#DejaVuSans-117"/>
       <use x="140.869141" xlink:href="#DejaVuSans-105"/>
       <use x="168.652344" xlink:href="#DejaVuSans-116"/>
       <use x="207.861328" xlink:href="#DejaVuSans-97"/>
       <use x="269.140625" xlink:href="#DejaVuSans-114"/>
      </g>
     </g>
    </g>
    <g id="xtick_30">
     <g id="text_48">
      <!-- Earphone -->
      <g style="fill:#262626;" transform="translate(1214.010184 336.678438)rotate(-90)scale(0.11 -0.11)">
       <use xlink:href="#DejaVuSans-69"/>
       <use x="63.183594" xlink:href="#DejaVuSans-97"/>
       <use x="124.462891" xlink:href="#DejaVuSans-114"/>
       <use x="165.576172" xlink:href="#DejaVuSans-112"/>
       <use x="229.052734" xlink:href="#DejaVuSans-104"/>
       <use x="292.431641" xlink:href="#DejaVuSans-111"/>
       <use x="353.613281" xlink:href="#DejaVuSans-110"/>
       <use x="416.992188" xlink:href="#DejaVuSans-101"/>
      </g>
     </g>
    </g>
    <g id="xtick_31">
     <g id="text_49">
      <!-- Rocket -->
      <g style="fill:#262626;" transform="translate(1239.429611 321.018906)rotate(-90)scale(0.11 -0.11)">
       <use xlink:href="#DejaVuSans-82"/>
       <use x="64.982422" xlink:href="#DejaVuSans-111"/>
       <use x="126.164062" xlink:href="#DejaVuSans-99"/>
       <use x="181.144531" xlink:href="#DejaVuSans-107"/>
       <use x="235.429688" xlink:href="#DejaVuSans-101"/>
       <use x="296.953125" xlink:href="#DejaVuSans-116"/>
      </g>
     </g>
    </g>
    <g id="xtick_32">
     <g id="text_50">
      <!-- Mug -->
      <g style="fill:#262626;" transform="translate(1264.849038 307.485469)rotate(-90)scale(0.11 -0.11)">
       <use xlink:href="#DejaVuSans-77"/>
       <use x="86.279297" xlink:href="#DejaVuSans-117"/>
       <use x="149.658203" xlink:href="#DejaVuSans-103"/>
      </g>
     </g>
    </g>
    <g id="xtick_33">
     <g id="text_51">
      <!-- Car -->
      <g style="fill:#262626;" transform="translate(1290.268465 302.984062)rotate(-90)scale(0.11 -0.11)">
       <use xlink:href="#DejaVuSans-67"/>
       <use x="69.824219" xlink:href="#DejaVuSans-97"/>
       <use x="131.103516" xlink:href="#DejaVuSans-114"/>
      </g>
     </g>
    </g>
    <g id="xtick_34">
     <g id="text_52">
      <!-- Pistol -->
      <g style="fill:#262626;" transform="translate(1315.687891 313.310313)rotate(-90)scale(0.11 -0.11)">
       <use xlink:href="#DejaVuSans-80"/>
       <use x="58.052734" xlink:href="#DejaVuSans-105"/>
       <use x="85.835938" xlink:href="#DejaVuSans-115"/>
       <use x="137.935547" xlink:href="#DejaVuSans-116"/>
       <use x="177.144531" xlink:href="#DejaVuSans-111"/>
       <use x="238.326172" xlink:href="#DejaVuSans-108"/>
      </g>
     </g>
    </g>
    <g id="xtick_35">
     <g id="text_53">
      <!-- Bag -->
      <g style="fill:#262626;" transform="translate(1341.107318 305.31125)rotate(-90)scale(0.11 -0.11)">
       <use xlink:href="#DejaVuSans-66"/>
       <use x="68.603516" xlink:href="#DejaVuSans-97"/>
       <use x="129.882812" xlink:href="#DejaVuSans-103"/>
      </g>
     </g>
    </g>
    <g id="xtick_36">
     <g id="text_54">
      <!-- Motorbike -->
      <g style="fill:#262626;" transform="translate(1366.526745 338.605156)rotate(-90)scale(0.11 -0.11)">
       <use xlink:href="#DejaVuSans-77"/>
       <use x="86.279297" xlink:href="#DejaVuSans-111"/>
       <use x="147.460938" xlink:href="#DejaVuSans-116"/>
       <use x="186.669922" xlink:href="#DejaVuSans-111"/>
       <use x="247.851562" xlink:href="#DejaVuSans-114"/>
       <use x="288.964844" xlink:href="#DejaVuSans-98"/>
       <use x="352.441406" xlink:href="#DejaVuSans-105"/>
       <use x="380.224609" xlink:href="#DejaVuSans-107"/>
       <use x="434.509766" xlink:href="#DejaVuSans-101"/>
      </g>
     </g>
    </g>
    <g id="xtick_37">
     <g id="text_55">
      <!-- Cap -->
      <g style="fill:#262626;" transform="translate(1391.946172 305.445312)rotate(-90)scale(0.11 -0.11)">
       <use xlink:href="#DejaVuSans-67"/>
       <use x="69.824219" xlink:href="#DejaVuSans-97"/>
       <use x="131.103516" xlink:href="#DejaVuSans-112"/>
      </g>
     </g>
    </g>
    <g id="xtick_38">
     <g id="text_56">
      <!-- Skateboard -->
      <g style="fill:#262626;" transform="translate(1417.365599 346.789844)rotate(-90)scale(0.11 -0.11)">
       <use xlink:href="#DejaVuSans-83"/>
       <use x="63.476562" xlink:href="#DejaVuSans-107"/>
       <use x="119.636719" xlink:href="#DejaVuSans-97"/>
       <use x="180.916016" xlink:href="#DejaVuSans-116"/>
       <use x="220.125" xlink:href="#DejaVuSans-101"/>
       <use x="281.648438" xlink:href="#DejaVuSans-98"/>
       <use x="345.125" xlink:href="#DejaVuSans-111"/>
       <use x="406.306641" xlink:href="#DejaVuSans-97"/>
       <use x="467.585938" xlink:href="#DejaVuSans-114"/>
       <use x="506.949219" xlink:href="#DejaVuSans-100"/>
      </g>
     </g>
    </g>
   </g>
   <g id="matplotlib.axis_6">
    <g id="ytick_14">
     <g id="line2d_36">
      <path clip-path="url(#p15bc065f99)" d="M 1020.32917 274.54 
L 1427.04 274.54 
" style="fill:none;stroke:#ffffff;stroke-linecap:round;"/>
     </g>
     <g id="text_57">
      <!-- 0 -->
      <g style="fill:#262626;" transform="translate(1003.83042 278.719141)scale(0.11 -0.11)">
       <use xlink:href="#DejaVuSans-48"/>
      </g>
     </g>
    </g>
    <g id="ytick_15">
     <g id="line2d_37">
      <path clip-path="url(#p15bc065f99)" d="M 1020.32917 244.046426 
L 1427.04 244.046426 
" style="fill:none;stroke:#ffffff;stroke-linecap:round;"/>
     </g>
     <g id="text_58">
      <!-- 500 -->
      <g style="fill:#262626;" transform="translate(989.83292 248.225566)scale(0.11 -0.11)">
       <use xlink:href="#DejaVuSans-53"/>
       <use x="63.623047" xlink:href="#DejaVuSans-48"/>
       <use x="127.246094" xlink:href="#DejaVuSans-48"/>
      </g>
     </g>
    </g>
    <g id="ytick_16">
     <g id="line2d_38">
      <path clip-path="url(#p15bc065f99)" d="M 1020.32917 213.552852 
L 1427.04 213.552852 
" style="fill:none;stroke:#ffffff;stroke-linecap:round;"/>
     </g>
     <g id="text_59">
      <!-- 1000 -->
      <g style="fill:#262626;" transform="translate(982.83417 217.731992)scale(0.11 -0.11)">
       <use xlink:href="#DejaVuSans-49"/>
       <use x="63.623047" xlink:href="#DejaVuSans-48"/>
       <use x="127.246094" xlink:href="#DejaVuSans-48"/>
       <use x="190.869141" xlink:href="#DejaVuSans-48"/>
      </g>
     </g>
    </g>
    <g id="ytick_17">
     <g id="line2d_39">
      <path clip-path="url(#p15bc065f99)" d="M 1020.32917 183.059277 
L 1427.04 183.059277 
" style="fill:none;stroke:#ffffff;stroke-linecap:round;"/>
     </g>
     <g id="text_60">
      <!-- 1500 -->
      <g style="fill:#262626;" transform="translate(982.83417 187.238418)scale(0.11 -0.11)">
       <use xlink:href="#DejaVuSans-49"/>
       <use x="63.623047" xlink:href="#DejaVuSans-53"/>
       <use x="127.246094" xlink:href="#DejaVuSans-48"/>
       <use x="190.869141" xlink:href="#DejaVuSans-48"/>
      </g>
     </g>
    </g>
    <g id="ytick_18">
     <g id="line2d_40">
      <path clip-path="url(#p15bc065f99)" d="M 1020.32917 152.565703 
L 1427.04 152.565703 
" style="fill:none;stroke:#ffffff;stroke-linecap:round;"/>
     </g>
     <g id="text_61">
      <!-- 2000 -->
      <g style="fill:#262626;" transform="translate(982.83417 156.744844)scale(0.11 -0.11)">
       <use xlink:href="#DejaVuSans-50"/>
       <use x="63.623047" xlink:href="#DejaVuSans-48"/>
       <use x="127.246094" xlink:href="#DejaVuSans-48"/>
       <use x="190.869141" xlink:href="#DejaVuSans-48"/>
      </g>
     </g>
    </g>
    <g id="ytick_19">
     <g id="line2d_41">
      <path clip-path="url(#p15bc065f99)" d="M 1020.32917 122.072129 
L 1427.04 122.072129 
" style="fill:none;stroke:#ffffff;stroke-linecap:round;"/>
     </g>
     <g id="text_62">
      <!-- 2500 -->
      <g style="fill:#262626;" transform="translate(982.83417 126.25127)scale(0.11 -0.11)">
       <use xlink:href="#DejaVuSans-50"/>
       <use x="63.623047" xlink:href="#DejaVuSans-53"/>
       <use x="127.246094" xlink:href="#DejaVuSans-48"/>
       <use x="190.869141" xlink:href="#DejaVuSans-48"/>
      </g>
     </g>
    </g>
    <g id="ytick_20">
     <g id="line2d_42">
      <path clip-path="url(#p15bc065f99)" d="M 1020.32917 91.578555 
L 1427.04 91.578555 
" style="fill:none;stroke:#ffffff;stroke-linecap:round;"/>
     </g>
     <g id="text_63">
      <!-- 3000 -->
      <g style="fill:#262626;" transform="translate(982.83417 95.757695)scale(0.11 -0.11)">
       <use xlink:href="#DejaVuSans-51"/>
       <use x="63.623047" xlink:href="#DejaVuSans-48"/>
       <use x="127.246094" xlink:href="#DejaVuSans-48"/>
       <use x="190.869141" xlink:href="#DejaVuSans-48"/>
      </g>
     </g>
    </g>
    <g id="ytick_21">
     <g id="line2d_43">
      <path clip-path="url(#p15bc065f99)" d="M 1020.32917 61.08498 
L 1427.04 61.08498 
" style="fill:none;stroke:#ffffff;stroke-linecap:round;"/>
     </g>
     <g id="text_64">
      <!-- 3500 -->
      <g style="fill:#262626;" transform="translate(982.83417 65.264121)scale(0.11 -0.11)">
       <use xlink:href="#DejaVuSans-51"/>
       <use x="63.623047" xlink:href="#DejaVuSans-53"/>
       <use x="127.246094" xlink:href="#DejaVuSans-48"/>
       <use x="190.869141" xlink:href="#DejaVuSans-48"/>
      </g>
     </g>
    </g>
    <g id="ytick_22">
     <g id="line2d_44">
      <path clip-path="url(#p15bc065f99)" d="M 1020.32917 30.591406 
L 1427.04 30.591406 
" style="fill:none;stroke:#ffffff;stroke-linecap:round;"/>
     </g>
     <g id="text_65">
      <!-- 4000 -->
      <g style="fill:#262626;" transform="translate(982.83417 34.770547)scale(0.11 -0.11)">
       <defs>
        <path d="M 37.796875 64.3125 
L 12.890625 25.390625 
L 37.796875 25.390625 
z
M 35.203125 72.90625 
L 47.609375 72.90625 
L 47.609375 25.390625 
L 58.015625 25.390625 
L 58.015625 17.1875 
L 47.609375 17.1875 
L 47.609375 0 
L 37.796875 0 
L 37.796875 17.1875 
L 4.890625 17.1875 
L 4.890625 26.703125 
z
" id="DejaVuSans-52"/>
       </defs>
       <use xlink:href="#DejaVuSans-52"/>
       <use x="63.623047" xlink:href="#DejaVuSans-48"/>
       <use x="127.246094" xlink:href="#DejaVuSans-48"/>
       <use x="190.869141" xlink:href="#DejaVuSans-48"/>
      </g>
     </g>
    </g>
    <g id="text_66">
     <!-- Num samples -->
     <g style="fill:#262626;" transform="translate(976.338545 192.732812)rotate(-90)scale(0.12 -0.12)">
      <use xlink:href="#DejaVuSans-78"/>
      <use x="74.804688" xlink:href="#DejaVuSans-117"/>
      <use x="138.183594" xlink:href="#DejaVuSans-109"/>
      <use x="235.595703" xlink:href="#DejaVuSans-32"/>
      <use x="267.382812" xlink:href="#DejaVuSans-115"/>
      <use x="319.482422" xlink:href="#DejaVuSans-97"/>
      <use x="380.761719" xlink:href="#DejaVuSans-109"/>
      <use x="478.173828" xlink:href="#DejaVuSans-112"/>
      <use x="541.650391" xlink:href="#DejaVuSans-108"/>
      <use x="569.433594" xlink:href="#DejaVuSans-101"/>
      <use x="630.957031" xlink:href="#DejaVuSans-115"/>
     </g>
    </g>
   </g>
   <g id="patch_59">
    <path clip-path="url(#p15bc065f99)" d="M 1022.871112 274.54 
L 1043.206654 274.54 
L 1043.206654 257.64656 
L 1022.871112 257.64656 
z
" style="fill:#ea96a3;stroke:#ffffff;stroke-linejoin:miter;"/>
   </g>
   <g id="patch_60">
    <path clip-path="url(#p15bc065f99)" d="M 1048.290539 274.54 
L 1068.626081 274.54 
L 1068.626081 155.127163 
L 1048.290539 155.127163 
z
" style="fill:#e69576;stroke:#ffffff;stroke-linejoin:miter;"/>
   </g>
   <g id="patch_61">
    <path clip-path="url(#p15bc065f99)" d="M 1073.709966 274.54 
L 1094.045508 274.54 
L 1094.045508 254.780164 
L 1073.709966 254.780164 
z
" style="fill:#ca984c;stroke:#ffffff;stroke-linejoin:miter;"/>
   </g>
   <g id="patch_62">
    <path clip-path="url(#p15bc065f99)" d="M 1099.129393 274.54 
L 1119.464935 274.54 
L 1119.464935 40.654286 
L 1099.129393 40.654286 
z
" style="fill:#b09d48;stroke:#ffffff;stroke-linejoin:miter;"/>
   </g>
   <g id="patch_63">
    <path clip-path="url(#p15bc065f99)" d="M 1124.54882 274.54 
L 1144.884362 274.54 
L 1144.884362 112.436159 
L 1124.54882 112.436159 
z
" style="fill:#98a246;stroke:#ffffff;stroke-linejoin:miter;"/>
   </g>
   <g id="patch_64">
    <path clip-path="url(#p15bc065f99)" d="M 1149.968247 274.54 
L 1170.303788 274.54 
L 1170.303788 206.356368 
L 1149.968247 206.356368 
z
" style="fill:#76ab47;stroke:#ffffff;stroke-linejoin:miter;"/>
   </g>
   <g id="patch_65">
    <path clip-path="url(#p15bc065f99)" d="M 1175.387674 274.54 
L 1195.723215 274.54 
L 1195.723215 240.997068 
L 1175.387674 240.997068 
z
" style="fill:#49af72;stroke:#ffffff;stroke-linejoin:miter;"/>
   </g>
   <g id="patch_66">
    <path clip-path="url(#p15bc065f99)" d="M 1200.807101 274.54 
L 1221.142642 274.54 
L 1221.142642 271.55163 
L 1200.807101 271.55163 
z
" style="fill:#4aad92;stroke:#ffffff;stroke-linejoin:miter;"/>
   </g>
   <g id="patch_67">
    <path clip-path="url(#p15bc065f99)" d="M 1226.226528 274.54 
L 1246.562069 274.54 
L 1246.562069 271.734591 
L 1226.226528 271.734591 
z
" style="fill:#4baba4;stroke:#ffffff;stroke-linejoin:miter;"/>
   </g>
   <g id="patch_68">
    <path clip-path="url(#p15bc065f99)" d="M 1251.645954 274.54 
L 1271.981496 274.54 
L 1271.981496 266.611671 
L 1251.645954 266.611671 
z
" style="fill:#4eabb6;stroke:#ffffff;stroke-linejoin:miter;"/>
   </g>
   <g id="patch_69">
    <path clip-path="url(#p15bc065f99)" d="M 1277.065381 274.54 
L 1297.400923 274.54 
L 1297.400923 234.349469 
L 1277.065381 234.349469 
z
" style="fill:#53accd;stroke:#ffffff;stroke-linejoin:miter;"/>
   </g>
   <g id="patch_70">
    <path clip-path="url(#p15bc065f99)" d="M 1302.484808 274.54 
L 1322.82035 274.54 
L 1322.82035 261.793686 
L 1302.484808 261.793686 
z
" style="fill:#88aee6;stroke:#ffffff;stroke-linejoin:miter;"/>
   </g>
   <g id="patch_71">
    <path clip-path="url(#p15bc065f99)" d="M 1327.904235 274.54 
L 1348.239777 274.54 
L 1348.239777 271.246694 
L 1327.904235 271.246694 
z
" style="fill:#b6a8eb;stroke:#ffffff;stroke-linejoin:miter;"/>
   </g>
   <g id="patch_72">
    <path clip-path="url(#p15bc065f99)" d="M 1353.323662 274.54 
L 1373.659204 274.54 
L 1373.659204 266.916606 
L 1353.323662 266.916606 
z
" style="fill:#d497e8;stroke:#ffffff;stroke-linejoin:miter;"/>
   </g>
   <g id="patch_73">
    <path clip-path="url(#p15bc065f99)" d="M 1378.743089 274.54 
L 1399.07863 274.54 
L 1399.07863 272.161501 
L 1378.743089 272.161501 
z
" style="fill:#e78cd7;stroke:#ffffff;stroke-linejoin:miter;"/>
   </g>
   <g id="patch_74">
    <path clip-path="url(#p15bc065f99)" d="M 1404.162516 274.54 
L 1424.498057 274.54 
L 1424.498057 268.075362 
L 1404.162516 268.075362 
z
" style="fill:#e992be;stroke:#ffffff;stroke-linejoin:miter;"/>
   </g>
   <g id="patch_75">
    <path d="M 1020.32917 274.54 
L 1020.32917 28.96 
" style="fill:none;stroke:#ffffff;stroke-linecap:square;stroke-linejoin:miter;stroke-width:1.25;"/>
   </g>
   <g id="patch_76">
    <path d="M 1427.04 274.54 
L 1427.04 28.96 
" style="fill:none;stroke:#ffffff;stroke-linecap:square;stroke-linejoin:miter;stroke-width:1.25;"/>
   </g>
   <g id="patch_77">
    <path d="M 1020.32917 274.54 
L 1427.04 274.54 
" style="fill:none;stroke:#ffffff;stroke-linecap:square;stroke-linejoin:miter;stroke-width:1.25;"/>
   </g>
   <g id="patch_78">
    <path d="M 1020.32917 28.96 
L 1427.04 28.96 
" style="fill:none;stroke:#ffffff;stroke-linecap:square;stroke-linejoin:miter;stroke-width:1.25;"/>
   </g>
   <g id="text_67">
    <!-- Number of samples per category -->
    <g style="fill:#262626;" transform="translate(1124.744585 22.96)scale(0.12 -0.12)">
     <use xlink:href="#DejaVuSans-78"/>
     <use x="74.804688" xlink:href="#DejaVuSans-117"/>
     <use x="138.183594" xlink:href="#DejaVuSans-109"/>
     <use x="235.595703" xlink:href="#DejaVuSans-98"/>
     <use x="299.072266" xlink:href="#DejaVuSans-101"/>
     <use x="360.595703" xlink:href="#DejaVuSans-114"/>
     <use x="401.708984" xlink:href="#DejaVuSans-32"/>
     <use x="433.496094" xlink:href="#DejaVuSans-111"/>
     <use x="494.677734" xlink:href="#DejaVuSans-102"/>
     <use x="529.882812" xlink:href="#DejaVuSans-32"/>
     <use x="561.669922" xlink:href="#DejaVuSans-115"/>
     <use x="613.769531" xlink:href="#DejaVuSans-97"/>
     <use x="675.048828" xlink:href="#DejaVuSans-109"/>
     <use x="772.460938" xlink:href="#DejaVuSans-112"/>
     <use x="835.9375" xlink:href="#DejaVuSans-108"/>
     <use x="863.720703" xlink:href="#DejaVuSans-101"/>
     <use x="925.244141" xlink:href="#DejaVuSans-115"/>
     <use x="977.34375" xlink:href="#DejaVuSans-32"/>
     <use x="1009.130859" xlink:href="#DejaVuSans-112"/>
     <use x="1072.607422" xlink:href="#DejaVuSans-101"/>
     <use x="1134.130859" xlink:href="#DejaVuSans-114"/>
     <use x="1175.244141" xlink:href="#DejaVuSans-32"/>
     <use x="1207.03125" xlink:href="#DejaVuSans-99"/>
     <use x="1262.011719" xlink:href="#DejaVuSans-97"/>
     <use x="1323.291016" xlink:href="#DejaVuSans-116"/>
     <use x="1362.5" xlink:href="#DejaVuSans-101"/>
     <use x="1424.023438" xlink:href="#DejaVuSans-103"/>
     <use x="1487.5" xlink:href="#DejaVuSans-111"/>
     <use x="1548.681641" xlink:href="#DejaVuSans-114"/>
     <use x="1589.794922" xlink:href="#DejaVuSans-121"/>
    </g>
   </g>
  </g>
 </g>
 <defs>
  <clipPath id="pf9f47d54ce">
   <rect height="245.58" width="406.71083" x="67.46" y="28.96"/>
  </clipPath>
  <clipPath id="pd9018d671e">
   <rect height="245.58" width="406.71083" x="543.894585" y="28.96"/>
  </clipPath>
  <clipPath id="p15bc065f99">
   <rect height="245.58" width="406.71083" x="1020.32917" y="28.96"/>
  </clipPath>
 </defs>
</svg>
